<?xml version="1.0" standalone="no"?>
<!DOCTYPE svg PUBLIC "-//W3C//DTD SVG 20010904//EN"
 "http://www.w3.org/TR/2001/REC-SVG-20010904/DTD/svg10.dtd">
<svg version="1.0" xmlns="http://www.w3.org/2000/svg"
 width="600.000000pt" height="600.000000pt" viewBox="0 0 600.000000 600.000000"
 preserveAspectRatio="xMidYMid meet">

<g transform="translate(0.000000,600.000000) scale(0.100000,-0.100000)"
fill="#000000" stroke="none">
<path d="M0 5768 c0 -127 2 -229 5 -227 2 3 49 106 103 230 l98 224 -39 3
c-21 2 -41 1 -44 -2 -3 -3 -8 -35 -10 -71 -6 -63 -23 -103 -23 -52 0 28 -35
43 -57 25 -8 -6 -16 -8 -20 -4 -4 3 15 29 42 56 l49 50 -52 0 -52 0 0 -232z"/>
<path d="M226 5992 c-3 -5 -55 -122 -115 -261 l-111 -252 0 -461 0 -461 110
-112 111 -112 -111 -108 -110 -109 0 -233 0 -233 140 0 140 0 0 -370 0 -370
-140 0 -140 0 0 -144 0 -144 61 19 c82 26 197 25 282 -1 233 -72 376 -314 326
-552 -51 -243 -288 -412 -531 -378 -38 6 -84 17 -103 24 l-35 15 1 -292 c0
-286 1 -292 22 -317 l22 -25 -22 19 -22 18 2 -523 2 -523 119 -53 120 -53 228
0 c171 0 228 3 228 12 0 9 3 9 12 0 18 -18 442 -17 432 1 -6 9 -3 8 9 -1 24
-20 62 -12 60 13 -1 19 0 19 14 -3 l15 -22 874 0 874 0 41 41 c23 23 71 55
107 72 59 28 77 32 152 32 75 0 93 -4 152 -32 36 -17 84 -49 107 -72 l41 -41
263 0 264 0 23 25 c56 60 173 105 271 105 82 0 177 -33 248 -85 l61 -45 428 0
427 1 27 60 c25 54 29 59 47 50 31 -17 48 -13 55 14 7 28 13 29 50 15 23 -8
28 -6 41 20 17 33 11 34 128 -19 38 -17 71 -31 73 -31 2 0 4 133 4 295 0 288
0 295 -20 295 -14 0 -20 6 -19 23 1 16 2 18 6 5 2 -10 11 -18 18 -18 11 0 14
29 14 137 l1 137 -32 -30 -33 -29 33 35 c30 34 32 40 32 113 l0 77 -30 0 c-23
0 -35 -7 -48 -29 l-18 -30 -11 30 c-10 26 -10 29 3 18 11 -9 18 -8 32 5 10 9
31 16 45 16 l27 0 0 295 0 295 -42 21 c-102 52 -202 191 -229 320 -39 181 47
386 205 490 l66 43 0 148 0 148 -230 0 -230 0 0 365 0 365 230 0 230 0 0 230
c0 127 -3 230 -7 230 -5 0 -43 -35 -86 -78 l-78 -78 -123 126 c-146 149 -250
259 -254 270 -2 4 84 92 190 194 l193 187 83 -87 82 -87 0 459 c-1 438 -2 458
-18 428 -14 -25 -21 -30 -37 -23 -33 13 -41 10 -53 -17 -12 -25 -18 -26 -68
-7 -6 2 -17 -10 -24 -26 -7 -17 -13 -31 -14 -31 -5 0 -409 180 -414 184 -3 3
41 110 97 237 55 128 100 234 98 236 -2 2 -194 2 -425 1 l-422 -3 30 -45 c78
-115 90 -270 31 -395 -137 -294 -536 -324 -712 -53 -89 139 -85 324 11 457
l30 41 -260 0 -260 0 24 -47 c93 -185 26 -395 -156 -494 -60 -33 -67 -34 -168
-34 -101 0 -108 1 -168 34 -180 98 -248 312 -156 493 l25 48 -912 0 c-858 -1
-910 -2 -898 -18 12 -15 11 -15 -7 1 -19 16 -43 18 -228 17 -161 -1 -205 -4
-197 -14 7 -8 6 -16 -1 -26 -8 -13 -9 -12 -5 1 11 36 -11 39 -264 39 -136 0
-250 -4 -253 -8z m507 -67 c-3 -9 -8 -14 -10 -11 -3 3 -2 9 2 15 9 16 15 13 8
-4z m1207 -160 l0 -175 -170 0 -170 0 0 168 c0 93 3 172 7 175 3 4 80 7 170 7
l163 0 0 -175z m700 0 l0 -175 -170 0 -170 0 0 168 c0 93 3 172 7 175 3 4 80
7 170 7 l163 0 0 -175z m-1983 133 c-3 -8 -6 -5 -6 6 -1 11 2 17 5 13 3 -3 4
-12 1 -19z m424 -5 c13 -16 12 -17 -3 -4 -17 13 -22 21 -14 21 2 0 10 -8 17
-17z m206 -24 c1 -19 1 -20 -4 -4 -3 11 -10 24 -17 28 -7 6 -6 7 4 4 8 -2 16
-14 17 -28z m-568 -6 c-1 -22 -2 -23 -6 -8 -3 11 -10 23 -17 27 -7 5 -5 8 7 8
12 0 17 -7 16 -27z m508 -40 c-3 -10 -5 -4 -5 12 0 17 2 24 5 18 2 -7 2 -21 0
-30z m-510 -30 c-3 -10 -5 -4 -5 12 0 17 2 24 5 18 2 -7 2 -21 0 -30z m565
-15 c-6 -6 -7 0 -4 19 5 21 7 23 10 9 2 -10 0 -22 -6 -28z m-617 3 c3 -5 1
-12 -5 -16 -5 -3 -10 1 -10 9 0 18 6 21 15 7z m582 3 c-3 -3 -12 -4 -19 -1 -8
3 -5 6 6 6 11 1 17 -2 13 -5z m-487 -95 c0 -4 -8 -10 -17 -14 -14 -5 -15 -3
-6 6 6 6 9 19 6 28 -4 14 -3 14 6 1 6 -8 11 -18 11 -21z m235 21 c-3 -5 -12
-10 -18 -10 -7 0 -6 4 3 10 19 12 23 12 15 0z m161 -51 c-25 -21 -35 -37 -31
-48 5 -13 4 -14 -6 -3 -11 10 -5 20 26 52 21 22 41 38 43 35 2 -2 -12 -18 -32
-36z m83 4 c-7 -10 -14 -19 -15 -21 -1 -2 -4 4 -8 13 -3 9 -2 13 3 10 5 -3 12
-1 16 5 3 5 9 10 12 10 3 0 -1 -8 -8 -17z m-519 1 c0 -8 -19 -13 -24 -6 -3 5
1 9 9 9 8 0 15 -2 15 -3z m30 -59 c13 -14 21 -25 18 -25 -2 0 -15 11 -28 25
-13 14 -21 25 -18 25 2 0 15 -11 28 -25z m51 -18 c-6 -8 -7 -18 -3 -22 4 -5 1
-5 -6 -1 -10 6 -10 11 -1 22 6 8 14 14 16 14 3 0 0 -6 -6 -13z m369 -2 c-7 -8
-17 -15 -23 -15 -6 0 -2 7 9 15 25 19 30 19 14 0z m-233 -1 c-3 -3 -12 -4 -19
-1 -8 3 -5 6 6 6 11 1 17 -2 13 -5z m93 2 c0 -11 -19 -15 -25 -6 -3 5 1 10 9
10 9 0 16 -2 16 -4z m1260 -176 l0 -170 -345 0 -345 0 0 170 0 170 345 0 345
0 0 -170z m352 160 c2 -5 2 -82 0 -170 l-3 -160 -169 0 -170 0 0 170 0 170
169 0 c102 0 171 -4 173 -10z m-1725 -22 c-3 -8 -6 -5 -6 6 -1 11 2 17 5 13 3
-3 4 -12 1 -19z m128 -20 c6 -4 2 -8 -7 -8 -10 0 -18 7 -18 17 0 9 3 12 8 7 4
-5 12 -12 17 -16z m-138 -4 c-3 -3 -12 -4 -19 -1 -8 3 -5 6 6 6 11 1 17 -2 13
-5z m76 -11 c-7 -2 -21 -2 -30 0 -10 3 -4 5 12 5 17 0 24 -2 18 -5z m-370
-111 c236 -116 288 -423 102 -607 -146 -145 -363 -151 -518 -15 -156 138 -168
381 -26 535 83 90 172 126 296 122 67 -3 92 -9 146 -35z m2741 -254 c40 -142
106 -378 106 -382 0 -2 -10 -6 -21 -9 -16 -4 -20 -11 -16 -27 4 -16 0 -23 -18
-30 -17 -6 -21 -14 -18 -32 4 -23 -2 -26 -144 -65 -81 -23 -151 -38 -155 -35
-6 7 -118 404 -118 421 0 5 9 13 20 16 15 5 19 12 14 29 -4 18 -1 25 16 29 16
4 21 12 18 29 -3 22 6 25 142 65 80 23 148 42 152 42 4 1 14 -23 22 -51z m896
-278 l0 -270 -275 0 -275 0 0 270 0 270 275 0 275 0 0 -270z m-2602 184 c99
-49 164 -156 164 -272 1 -37 -2 -78 -6 -90 -6 -16 -3 -22 8 -22 12 0 16 -11
16 -50 l0 -50 -100 0 c-55 0 -100 2 -100 4 0 2 16 33 35 70 40 77 46 149 20
214 -82 194 -321 124 -319 -94 0 -51 6 -71 38 -127 l37 -67 -106 0 -105 0 0
50 c0 35 4 50 14 50 10 0 13 21 12 93 -1 74 3 101 20 138 71 154 235 221 372
153z m987 -245 c202 -95 249 -366 91 -525 -71 -70 -144 -97 -246 -92 -130 7
-227 74 -283 195 -33 72 -31 189 4 264 39 83 116 150 209 180 47 16 171 4 225
-22z m1918 -42 c20 1 43 2 50 2 6 0 31 -2 53 -5 l42 -6 -27 -65 -27 -66 -94 2
c-52 1 -98 5 -102 9 -8 8 -48 113 -48 126 0 4 10 6 23 3 12 -3 31 -1 42 3 11
5 27 6 35 2 8 -3 32 -5 53 -5z m91 -160 c11 -8 17 -23 14 -38 -3 -24 -5 -24
-112 -27 -113 -3 -136 4 -136 39 0 10 8 23 18 28 26 15 194 14 216 -2z m-3801
-60 c20 1 43 2 50 3 6 1 31 -2 54 -7 l41 -8 -25 -62 -25 -63 -98 0 -98 0 -26
65 c-14 36 -26 67 -26 70 0 6 83 12 100 6 8 -3 32 -4 53 -4z m3868 -59 c127
-122 184 -335 123 -453 -41 -79 -151 -126 -297 -126 -133 -1 -239 34 -299 98
-37 39 -48 73 -48 148 0 127 63 256 165 339 l50 41 130 -1 130 -1 46 -45z
m-3767 -110 c11 -15 12 -26 5 -40 -8 -16 -23 -18 -117 -18 -111 0 -132 7 -132
42 0 29 30 37 132 38 88 0 98 -2 112 -22z m58 -105 c121 -118 182 -331 129
-449 -39 -86 -148 -134 -306 -134 -159 0 -280 53 -326 142 -19 36 -21 54 -16
125 8 127 69 244 167 322 l45 36 134 -2 134 -2 39 -38z m4368 -174 c28 -6 74
-26 102 -45 38 -26 54 -32 64 -24 9 8 23 6 53 -10 23 -11 41 -23 41 -27 0 -3
-21 -44 -46 -90 -30 -55 -50 -81 -56 -75 -5 5 -24 31 -41 57 -86 130 -268 148
-344 35 -54 -79 -7 -195 102 -253 31 -17 58 -22 123 -22 45 0 82 -1 82 -3 0
-1 -20 -43 -45 -92 l-45 -90 -45 22 c-35 17 -44 26 -39 40 3 11 0 18 -8 18 -7
0 -40 13 -73 29 -116 54 -192 178 -182 293 10 110 89 206 196 234 59 16 97 17
161 3z m-2608 -153 c187 -89 278 -294 218 -488 -37 -119 -109 -200 -226 -255
-53 -25 -70 -28 -164 -28 -99 0 -109 2 -173 33 -165 82 -259 259 -228 431 28
153 112 256 258 317 51 22 70 24 158 21 84 -3 109 -7 157 -31z m-1050 -399
c92 -45 157 -112 201 -205 26 -56 32 -82 35 -158 5 -113 -12 -179 -71 -265
-205 -307 -678 -223 -772 136 -37 144 0 287 103 398 95 101 188 139 333 134
88 -2 103 -6 171 -40z m2770 4 c114 -54 192 -147 222 -266 39 -147 -6 -301
-119 -403 -163 -147 -406 -142 -561 12 -95 96 -138 227 -115 352 21 116 87
218 183 281 107 72 270 82 390 24z m-1047 -510 c56 -25 118 -97 145 -167 18
-49 21 -74 18 -141 -3 -64 -1 -83 9 -83 9 0 13 -15 13 -50 l0 -50 -100 0 -99
0 35 68 c30 57 36 80 36 128 0 131 -87 230 -183 209 -52 -12 -107 -70 -125
-133 -21 -70 -14 -124 26 -202 16 -33 30 -62 30 -65 0 -3 -43 -5 -95 -5 l-95
0 0 50 c0 39 4 50 16 50 11 0 14 6 8 22 -4 12 -7 52 -6 88 0 114 54 217 139
267 79 46 145 50 228 14z m-735 -263 c0 -105 -3 -189 -6 -185 -3 3 -5 87 -4
186 l1 181 -180 0 -181 0 -3 -182 -2 -183 -3 188 -2 187 190 0 190 0 0 -192z
m-248 135 c22 -20 23 -42 2 -71 -40 -58 -118 5 -84 69 13 24 57 25 82 2z m190
0 c22 -20 23 -51 1 -75 -33 -36 -93 -13 -93 37 0 49 55 72 92 38z m-227 -180
c-30 -8 -45 -23 -45 -47 0 -42 48 -62 80 -33 12 10 12 9 1 -5 -28 -37 -91 -14
-91 32 0 34 23 60 53 59 20 -1 21 -2 2 -6z m190 0 c-30 -8 -45 -23 -45 -47 0
-61 88 -62 91 -1 1 17 2 18 6 2 11 -43 -58 -75 -91 -41 -34 33 -9 95 37 93 20
-1 21 -2 2 -6z m-136 -52 c0 -14 -1 -14 -6 -1 -3 8 -10 24 -15 35 -9 20 -9 20
6 1 9 -11 16 -27 15 -35z m2816 -155 c119 -43 193 -110 249 -226 29 -61 31
-72 31 -180 0 -110 -2 -119 -32 -180 -43 -86 -85 -135 -155 -180 -166 -108
-384 -88 -529 47 -178 166 -185 438 -16 613 118 121 295 163 452 106z m-958
-30 c3 -3 -4 -29 -16 -58 l-21 -53 -83 3 -82 3 -21 58 -21 57 119 -2 c66 -1
122 -5 125 -8z m-31 -130 c16 -13 17 -18 6 -35 -7 -12 -8 -21 -4 -21 5 0 26
-16 46 -36 140 -136 169 -372 55 -442 -146 -88 -396 -56 -470 61 -30 47 -23
171 14 248 28 57 114 154 148 164 16 5 17 9 6 26 -10 17 -9 22 7 35 27 19 165
19 192 0z m-2666 -266 l0 -270 -275 0 -275 0 0 270 0 270 275 0 275 0 0 -270z
m1022 -105 c-1 -154 -2 -283 -2 -287 0 -5 -130 -8 -290 -8 l-290 0 0 283 c0
156 3 287 7 290 4 4 135 6 291 5 l285 -3 -1 -280z m705 263 c77 -29 152 -104
181 -181 61 -161 -7 -341 -156 -414 -50 -24 -69 -28 -147 -28 -78 0 -97 4
-140 27 -68 35 -122 92 -154 158 -21 45 -26 69 -26 135 0 66 5 90 26 135 40
85 120 153 209 181 51 15 148 9 207 -13z m1423 -636 c0 -11 49 -278 56 -309 5
-19 0 -23 -38 -32 l-43 -10 45 2 44 2 27 -145 c15 -80 28 -154 28 -165 1 -18
-14 -23 -156 -48 -193 -35 -323 -59 -513 -96 -284 -56 -340 -65 -349 -55 -7 7
-121 615 -125 663 -1 10 39 22 149 42 83 16 157 29 166 29 12 0 19 -12 23 -37
4 -21 19 -99 32 -173 l26 -136 191 35 c106 20 185 37 176 39 -12 2 -23 42 -46
170 -17 92 -29 168 -28 170 3 4 293 59 318 61 9 1 17 -3 17 -7z m-3557 -69
c101 -38 186 -127 224 -233 15 -42 20 -47 36 -38 10 5 20 8 21 6 2 -2 15 -24
30 -49 21 -36 24 -48 14 -56 -10 -8 -125 -76 -222 -131 -5 -3 -7 26 -3 70 12
136 -39 238 -142 291 -157 79 -315 -17 -315 -193 0 -114 60 -198 183 -260 l64
-32 -119 -68 c-66 -37 -122 -66 -126 -64 -3 2 -18 25 -32 50 -24 43 -25 48 -9
59 15 11 13 16 -20 57 -65 79 -82 129 -82 243 0 88 3 107 27 157 46 98 146
183 245 208 53 13 169 5 226 -17z m4635 -120 c-11 -3 -18 -14 -18 -30 0 -31
-5 -28 -14 10 -6 25 -4 27 21 26 17 -1 21 -3 11 -6z m114 -15 c-5 -18 -7 -19
-10 -6 -2 9 -11 19 -20 21 -10 3 -6 5 10 6 22 1 25 -2 20 -21z m-3734 5 c-33
-3 -48 -9 -51 -21 -3 -12 -5 -11 -6 6 -1 20 3 22 52 20 l52 -2 -47 -3z m3490
-29 c-16 -8 -28 -18 -28 -22 0 -18 32 -52 43 -45 7 4 6 -1 -2 -10 -13 -16 -15
-15 -29 13 -8 16 -20 30 -28 30 -18 0 -86 -71 -80 -85 2 -7 -2 -12 -10 -12
-19 0 -18 3 13 44 27 35 119 103 138 103 5 -1 -2 -8 -17 -16z m-5587 -41 c13
-16 12 -17 -3 -4 -10 7 -24 11 -31 8 -7 -3 -13 3 -13 13 0 21 23 13 47 -17z
m1932 13 c4 -10 1 -13 -8 -9 -8 3 -12 9 -9 14 7 12 11 11 17 -5z m356 1 c8
-10 7 -14 -4 -14 -8 0 -15 6 -15 14 0 7 2 13 4 13 2 0 9 -6 15 -13z m3530 -1
c-7 -6 -160 -14 -154 -8 6 6 147 19 154 15 2 -2 2 -5 0 -7z m-3764 -6 c-3 -5
-12 -10 -18 -10 -7 0 -6 4 3 10 19 12 23 12 15 0z m3590 -20 c-3 -5 -12 -10
-18 -10 -7 0 -6 4 3 10 19 12 23 12 15 0z m-5740 -10 c3 -6 -1 -7 -9 -4 -18 7
-21 14 -7 14 6 0 13 -4 16 -10z m40 0 c-4 -6 9 -28 28 -49 37 -41 40 -41 86
-4 2 1 -4 13 -15 25 -10 12 -13 18 -6 14 17 -10 72 -96 72 -110 -1 -6 -10 6
-21 27 -17 32 -22 36 -39 27 -10 -6 -23 -16 -27 -24 -6 -10 -20 -1 -54 35 -33
34 -43 51 -36 58 14 14 20 14 12 1z m2020 -8 c-3 -3 -11 0 -18 7 -9 10 -8 11
6 5 10 -3 15 -9 12 -12z m286 -9 c13 -16 12 -17 -3 -4 -10 7 -18 15 -18 17 0
8 8 3 21 -13z m-337 -35 c-16 -18 -31 -36 -34 -40 -3 -4 -6 1 -6 11 0 11 3 18
7 16 3 -3 17 7 29 20 35 37 38 30 4 -7z m445 18 c9 -11 9 -16 -1 -22 -7 -4
-10 -4 -6 1 4 4 3 14 -3 22 -6 7 -9 13 -6 13 2 0 10 -6 16 -14z m3189 -23
c-14 -16 -35 -44 -47 -63 -21 -36 -30 -35 -10 1 7 15 7 24 -1 34 -9 11 -7 12
7 9 11 -3 28 5 42 20 14 14 27 26 30 26 2 0 -7 -12 -21 -27z m-3220 -20 c-5
-7 -7 -17 -3 -23 13 -20 -3 -9 -17 13 -14 21 -14 22 8 22 16 0 20 -3 12 -12z
m3083 -60 c-12 -20 -14 -14 -5 12 4 9 9 14 11 11 3 -2 0 -13 -6 -23z m-3591
-29 c0 -2 -9 -4 -20 -4 -11 0 -20 4 -20 9 0 5 9 7 20 4 11 -3 20 -7 20 -9z
m555 -7 c16 -5 15 -5 -4 -4 -14 1 -26 9 -28 17 -3 10 -2 11 4 4 4 -7 17 -14
28 -17z m-528 -19 c-3 -7 -5 -2 -5 12 0 14 2 19 5 13 2 -7 2 -19 0 -25z m270
7 c-9 -19 -13 -21 -15 -9 -3 13 12 33 25 34 0 0 -4 -11 -10 -25z m-2039 -16
c14 0 13 -2 -3 -8 -14 -6 -22 -4 -27 8 -10 25 -9 38 3 19 5 -10 18 -18 27 -19z
m49 -1 c-3 -7 -5 -2 -5 12 0 14 2 19 5 13 2 -7 2 -19 0 -25z m2289 -74 c-3 -8
-11 -14 -18 -13 -10 0 -10 2 0 6 7 3 13 27 14 61 l2 57 3 -49 c2 -27 2 -55 -1
-62z m2987 78 c-13 -3 -15 -17 -11 -80 3 -43 2 -68 -3 -57 -9 24 -11 111 -3
142 5 17 9 19 19 10 11 -10 10 -13 -2 -15z m302 21 c-40 -6 -63 -28 -68 -67
l-4 -31 -1 31 c-3 42 29 74 71 73 l32 -2 -30 -4z m-236 -35 c0 -13 -3 -17 -6
-10 -2 6 -12 12 -21 13 -14 0 -13 2 3 9 11 5 21 9 23 9 1 1 2 -9 1 -21z
m-3112 -20 c-3 -7 -5 -2 -5 12 0 14 2 19 5 13 2 -7 2 -19 0 -25z m-2450 -25
c-3 -10 -5 -4 -5 12 0 17 2 24 5 18 2 -7 2 -21 0 -30z m230 -25 c-2 -13 -4 -5
-4 17 -1 22 1 32 4 23 2 -10 2 -28 0 -40z m1710 10 c-3 -7 -5 -2 -5 12 0 14 2
19 5 13 2 -7 2 -19 0 -25z m-27 -2 c0 -2 -9 -6 -20 -9 -11 -3 -20 -1 -20 4 0
5 9 9 20 9 11 0 20 -2 20 -4z m533 -11 c-3 -9 -8 -14 -10 -11 -3 3 -2 9 2 15
9 16 15 13 8 -4z m-2462 -22 c-12 -20 -14 -14 -5 12 4 9 9 14 11 11 3 -2 0
-13 -6 -23z m5783 -23 c6 -9 1 -5 -11 8 -13 13 -23 28 -23 35 0 7 6 3 12 -8 6
-11 16 -27 22 -35z m-5617 8 c-3 -7 -5 -2 -5 12 0 14 2 19 5 13 2 -7 2 -19 0
-25z m5413 11 c0 -11 -4 -18 -10 -14 -5 3 -7 12 -3 20 7 21 13 19 13 -6z
m-5340 -31 c0 -18 -2 -20 -9 -8 -6 8 -7 18 -5 22 9 14 14 9 14 -14z m1744 6
c3 -8 2 -12 -4 -9 -6 3 -10 10 -10 16 0 14 7 11 14 -7z m3563 10 c-3 -3 -12
-4 -19 -1 -8 3 -5 6 6 6 11 1 17 -2 13 -5z m93 -134 c0 -3 -4 1 -9 9 -8 12
-13 12 -35 -3 -14 -9 -26 -20 -26 -24 0 -4 18 -25 40 -47 38 -38 40 -38 59
-21 20 18 20 18 8 -7 -14 -31 -27 -26 -86 38 l-43 47 31 15 c34 17 37 26 16
63 -8 14 -14 31 -15 39 0 8 13 -13 30 -45 16 -32 30 -61 30 -64z m-5501 56
c-11 -23 -10 -28 7 -41 10 -8 24 -15 31 -15 7 0 10 -7 6 -16 -5 -15 -7 -15
-15 0 -5 9 -18 21 -29 27 -16 8 -25 7 -42 -8 -15 -13 -14 -9 5 14 15 18 30 42
33 54 4 11 9 18 11 16 3 -2 -1 -16 -7 -31z m82 7 c-12 -20 -14 -14 -5 12 4 9
9 14 11 11 3 -2 0 -13 -6 -23z m2214 17 c3 -6 -1 -7 -9 -4 -18 7 -21 14 -7 14
6 0 13 -4 16 -10z m3456 -24 c8 4 9 3 5 -4 -10 -17 -20 -15 -47 9 l-24 20 27
-16 c15 -9 33 -13 39 -9z m-4278 -78 c6 -37 6 -37 -71 -82 l-76 -44 -45 36
c-25 20 -50 39 -55 44 -5 4 2 11 15 17 14 5 31 16 38 25 7 9 22 16 33 16 10 0
30 11 43 24 13 13 38 27 54 31 17 4 34 12 38 18 7 12 17 -19 26 -85z m341 76
c3 -8 2 -12 -4 -9 -6 3 -10 10 -10 16 0 14 7 11 14 -7z m424 -13 c-13 -15 -25
-27 -27 -25 -4 4 39 54 47 54 2 0 -7 -13 -20 -29z m-2177 -24 c-10 -9 -11 -8
-5 6 3 10 9 15 12 12 3 -3 0 -11 -7 -18z m5343 7 c3 -8 2 -12 -4 -9 -6 3 -10
10 -10 16 0 14 7 11 14 -7z m-3165 -38 c9 -11 9 -16 -1 -22 -7 -4 -10 -4 -6 1
4 4 3 14 -3 22 -6 7 -9 13 -6 13 2 0 10 -6 16 -14z m-205 -3 c-5 -5 -12 -12
-16 -18 -4 -6 -8 -2 -8 8 0 9 7 17 17 17 9 0 12 -3 7 -7z m88 -15 c-4 -16 -7
-18 -10 -8 -3 8 -10 18 -16 22 -6 5 -2 8 11 8 17 0 20 -4 15 -22z m-2197 -2
c-18 -13 -18 -17 -6 -40 18 -34 28 -33 71 7 l35 32 -30 -33 c-31 -35 -112 -88
-121 -80 -2 3 9 11 26 18 35 14 36 18 14 48 -10 15 -22 21 -33 17 -9 -3 -2 6
14 19 17 14 34 25 39 26 6 0 1 -6 -9 -14z m5665 -31 c0 -10 -40 9 -44 21 -4
11 0 11 19 -2 14 -9 25 -18 25 -19z m-3580 -5 c0 -5 -5 -10 -11 -10 -5 0 -7 5
-4 10 3 6 8 10 11 10 2 0 4 -4 4 -10z m-495 -27 c6 -15 21 -23 51 -28 126 -19
286 -142 319 -247 22 -68 15 -109 -27 -173 -90 -136 -322 -224 -436 -166 -95
48 -151 214 -122 356 14 65 39 125 53 125 15 0 167 94 167 104 0 5 -8 2 -17
-6 -32 -27 -140 -88 -156 -88 -19 0 -38 32 -29 47 12 19 157 103 172 101 8 -2
19 -13 25 -25z m573 10 c-10 -2 -26 -2 -35 0 -10 3 -2 5 17 5 19 0 27 -2 18
-5z m681 -253 c50 -134 87 -247 83 -251 -12 -10 -504 -190 -509 -186 -10 10
-189 502 -184 505 43 21 508 188 512 183 4 -3 48 -116 98 -251z m2919 243
c-13 -3 -18 -15 -18 -39 0 -34 0 -34 48 -35 26 -1 36 -4 23 -6 -29 -6 -124 9
-98 15 15 3 18 11 15 38 -4 31 -2 34 22 33 16 -1 19 -3 8 -6z m105 -9 c-3 -9
-9 -12 -12 -7 -3 4 -10 11 -15 16 -5 4 0 7 12 7 15 0 20 -4 15 -16z m-204 -40
c14 -12 -19 -1 -35 12 -18 14 -18 14 6 3 14 -6 27 -13 29 -15z m-1775 -156
c82 -292 89 -321 72 -333 -9 -7 -16 -22 -16 -34 0 -12 -6 -21 -15 -21 -9 0
-15 -9 -15 -23 0 -22 -11 -27 -127 -59 -71 -20 -131 -33 -135 -29 -3 3 -27 82
-53 176 -26 93 -50 175 -52 183 -3 8 3 15 16 19 16 4 19 11 15 28 -4 17 0 24
15 28 14 3 18 11 15 24 -5 18 8 24 118 55 68 20 128 36 135 37 6 0 18 -23 27
-51z m-3067 -424 c-3 -3 -12 -4 -19 -1 -8 3 -5 6 6 6 11 1 17 -2 13 -5z m133
2 c0 -2 -7 -6 -15 -10 -8 -3 -15 -1 -15 4 0 6 7 10 15 10 8 0 15 -2 15 -4z
m-133 -38 c-3 -8 -6 -5 -6 6 -1 11 2 17 5 13 3 -3 4 -12 1 -19z m-120 -5 c-4
-3 -1 -13 6 -22 11 -14 10 -14 -5 -2 -16 12 -16 31 -1 31 4 0 3 -3 0 -7z m379
-26 c6 -8 3 -8 -9 1 -9 8 -20 11 -25 8 -5 -3 -9 1 -9 9 0 16 31 4 43 -18z
m-416 0 c0 -2 -10 -12 -22 -23 l-23 -19 19 23 c18 21 26 27 26 19z m335 -17
c3 -6 -1 -7 -9 -4 -18 7 -21 14 -7 14 6 0 13 -4 16 -10z m-276 -23 c-2 -1 -13
-9 -24 -17 -19 -14 -19 -14 -6 3 7 9 18 17 24 17 6 0 8 -1 6 -3z"/>
<path d="M1620 5760 l0 -161 153 3 152 3 3 158 3 157 -156 0 -155 0 0 -160z
m264 124 c19 -18 21 -55 4 -72 -28 -28 -88 -2 -88 38 0 24 26 50 50 50 10 0
26 -7 34 -16z m-71 -95 c14 -23 0 -67 -24 -74 -24 -8 -69 19 -69 41 0 8 5 24
11 35 13 24 66 23 82 -2z m-91 -76 c22 -20 23 -41 1 -65 -32 -36 -83 -17 -83
32 0 48 45 67 82 33z"/>
<path d="M1826 5874 c-9 -8 -16 -19 -16 -24 0 -11 29 -40 40 -40 11 0 40 29
40 40 0 11 -29 40 -40 40 -5 0 -16 -7 -24 -16z"/>
<path d="M1744 5786 c-11 -28 1 -51 25 -51 32 0 49 28 32 49 -17 20 -50 21
-57 2z"/>
<path d="M1665 5706 c-20 -15 -17 -44 7 -59 12 -8 21 -7 32 2 36 30 -1 85 -39
57z"/>
<path d="M2320 5760 l0 -161 153 3 152 3 3 158 3 157 -156 0 -155 0 0 -160z
m269 126 c16 -19 10 -66 -10 -79 -26 -16 -68 0 -75 29 -12 47 55 87 85 50z
m-81 -88 c7 -7 12 -25 12 -40 0 -40 -39 -58 -75 -34 -27 18 -31 36 -15 67 12
22 59 26 78 7z m-83 -88 c27 -29 10 -74 -28 -78 -36 -4 -57 13 -57 49 0 47 53
65 85 29z"/>
<path d="M2532 5878 c-30 -30 0 -78 37 -58 26 14 27 46 2 60 -24 13 -24 13
-39 -2z"/>
<path d="M2452 5791 c-8 -4 -12 -19 -10 -32 4 -33 53 -40 63 -9 11 36 -22 61
-53 41z"/>
<path d="M2366 5704 c-21 -21 -20 -41 3 -54 27 -14 51 -2 51 26 0 32 -33 49
-54 28z"/>
<path d="M1620 5410 l0 -160 155 0 156 0 -3 158 -3 157 -152 3 -153 3 0 -161z
m105 100 c24 -27 13 -68 -22 -76 -34 -9 -57 6 -61 42 -6 49 49 72 83 34z m159
4 c19 -18 21 -55 4 -72 -31 -31 -88 -4 -88 42 0 20 28 46 50 46 10 0 26 -7 34
-16z m-164 -164 c23 -23 24 -33 10 -61 -12 -22 -59 -26 -78 -7 -18 18 -15 65
6 77 25 15 40 13 62 -9z m162 3 c36 -32 17 -83 -32 -83 -48 0 -67 45 -33 82
20 22 41 23 65 1z"/>
<path d="M1665 5504 c-19 -19 -16 -43 7 -57 20 -13 48 6 48 34 0 28 -35 43
-55 23z"/>
<path d="M1821 5496 c-13 -16 -6 -42 15 -50 31 -12 60 18 48 49 -8 19 -48 20
-63 1z"/>
<path d="M1655 5329 c-9 -29 15 -53 44 -44 34 10 25 59 -11 63 -20 2 -28 -2
-33 -19z"/>
<path d="M1821 5332 c-12 -23 4 -52 29 -52 26 0 45 36 29 56 -16 19 -46 18
-58 -4z"/>
<path d="M1964 5555 c-3 -6 -3 -76 -2 -155 l3 -145 155 0 155 0 3 153 3 152
-23 1 c-160 5 -291 3 -294 -6z m266 -35 c24 -24 24 -29 4 -58 -29 -42 -84 -23
-84 30 0 45 46 62 80 28z m-149 -171 c17 -33 -3 -69 -39 -69 -33 0 -52 16 -52
45 0 29 19 45 52 45 18 0 31 -7 39 -21z"/>
<path d="M2165 5499 c-10 -30 19 -53 47 -38 29 15 20 53 -14 57 -20 2 -28 -2
-33 -19z"/>
<path d="M2014 5346 c-11 -29 0 -51 26 -51 21 0 25 5 25 30 0 24 -5 31 -23 33
-13 2 -24 -3 -28 -12z"/>
<path d="M2377 5562 l-68 -3 3 -152 3 -152 158 -3 158 -3 -3 158 -3 158 -90 0
c-49 0 -120 -1 -158 -3z m56 -44 c16 -25 0 -67 -30 -74 -35 -9 -57 7 -61 44
-6 54 62 76 91 30z m167 1 c17 -31 4 -68 -27 -75 -31 -8 -53 4 -64 33 -19 51
66 90 91 42z m-167 -170 c5 -9 7 -28 3 -42 -7 -30 -49 -46 -75 -30 -20 13 -26
60 -10 79 16 19 69 14 82 -7z m167 2 c14 -27 13 -47 -6 -65 -24 -24 -61 -20
-80 9 -15 23 -15 27 0 50 21 31 70 35 86 6z"/>
<path d="M2362 5518 c-18 -18 -14 -46 7 -58 38 -20 71 13 51 51 -12 21 -40 25
-58 7z"/>
<path d="M2532 5518 c-19 -19 -14 -46 10 -59 18 -10 24 -8 40 11 31 38 -15 83
-50 48z"/>
<path d="M2362 5348 c-18 -18 -14 -46 7 -58 38 -20 71 13 51 51 -12 21 -40 25
-58 7z"/>
<path d="M2532 5348 c-28 -28 4 -77 41 -62 22 8 28 42 10 59 -18 18 -35 19
-51 3z"/>
<path d="M394 5398 c3 -13 6 -25 6 -28 0 -11 100 -5 100 7 0 6 3 18 6 27 5 14
-3 16 -56 16 -60 0 -62 -1 -56 -22z"/>
<path d="M298 5389 c-42 -21 -44 -27 -25 -53 11 -15 17 -16 33 -7 10 6 31 15
47 21 20 7 27 16 27 35 0 31 -28 33 -82 4z"/>
<path d="M520 5385 c0 -19 9 -28 47 -45 45 -20 48 -20 60 -4 19 26 17 32 -27
54 -55 28 -80 26 -80 -5z"/>
<path d="M191 5314 c-26 -28 -30 -39 -20 -50 17 -21 32 -17 66 19 27 28 30 34
19 50 -19 25 -30 22 -65 -19z"/>
<path d="M359 5334 c-60 -18 -140 -90 -170 -152 -34 -69 -33 -178 3 -247 115
-220 418 -211 522 14 29 65 28 169 -3 234 -63 130 -213 194 -352 151z m176
-177 c55 -57 71 -99 55 -142 -10 -27 -51 -48 -75 -39 -27 11 -16 -17 15 -34
16 -9 30 -20 30 -24 0 -5 -44 -8 -97 -8 l-98 0 33 26 c39 31 40 42 7 42 -58 0
-83 67 -50 131 17 35 93 101 114 101 8 0 38 -24 66 -53z"/>
<path d="M413 5152 c-54 -53 -71 -96 -52 -131 19 -34 45 -38 80 -12 l29 21 20
-20 c11 -11 28 -20 38 -20 26 0 52 31 52 62 0 42 -80 138 -116 138 -6 0 -29
-17 -51 -38z"/>
<path d="M449 4968 c-7 -13 -17 -26 -23 -30 -6 -4 11 -8 37 -8 l48 0 -23 30
c-12 17 -23 30 -25 30 -1 0 -8 -10 -14 -22z"/>
<path d="M643 5331 c-11 -17 -8 -24 22 -54 34 -34 36 -35 56 -18 l22 17 -33
37 c-36 42 -50 45 -67 18z"/>
<path d="M119 5204 c-23 -51 -20 -74 10 -74 27 0 67 86 50 106 -21 25 -40 15
-60 -32z"/>
<path d="M721 5236 c-17 -20 23 -106 50 -106 30 0 33 23 10 74 -20 47 -39 57
-60 32z"/>
<path d="M90 5059 c0 -52 2 -60 16 -55 9 3 21 6 28 6 8 0 12 17 12 49 0 49 -9
60 -48 61 -5 0 -8 -27 -8 -61z"/>
<path d="M768 5113 c-14 -3 -18 -15 -18 -53 0 -43 3 -48 25 -52 33 -7 35 -3
35 59 0 54 -2 57 -42 46z"/>
<path d="M731 4946 c-20 -48 -20 -52 -4 -63 26 -20 33 -16 53 30 26 56 25 74
-4 79 -20 4 -26 -2 -45 -46z"/>
<path d="M100 4973 c1 -24 37 -103 48 -103 4 0 16 6 26 13 16 12 16 15 -4 60
-17 38 -26 47 -45 47 -17 0 -25 -6 -25 -17z"/>
<path d="M176 4865 c-18 -13 -18 -15 4 -44 32 -46 56 -56 74 -30 13 20 12 24
-19 55 -39 39 -35 37 -59 19z"/>
<path d="M661 4845 c-30 -31 -32 -37 -20 -52 7 -10 14 -20 16 -22 3 -6 55 38
71 60 12 18 12 22 -4 34 -25 19 -24 19 -63 -20z"/>
<path d="M272 4788 c-22 -22 -13 -39 31 -58 60 -28 77 -26 77 8 0 22 -6 29
-32 38 -18 6 -40 14 -48 18 -9 3 -21 1 -28 -6z"/>
<path d="M580 4785 c-14 -8 -33 -14 -42 -15 -23 0 -26 -60 -4 -60 19 0 106 37
106 45 0 12 -21 45 -28 45 -4 -1 -18 -7 -32 -15z"/>
<path d="M396 4738 c-3 -13 -6 -26 -6 -30 0 -5 27 -8 60 -8 33 0 60 3 60 8 -1
41 -13 52 -60 52 -41 0 -49 -3 -54 -22z"/>
<path d="M3175 5143 c-66 -19 -121 -37 -123 -38 -4 -4 104 -395 112 -402 6 -6
248 56 269 69 8 5 -6 67 -44 205 -47 167 -58 198 -75 200 -10 1 -73 -15 -139
-34z m138 -40 c15 -20 24 -39 20 -42 -3 -4 -8 -1 -10 5 -6 17 -41 5 -46 -15
-3 -9 -5 8 -6 37 0 28 3 52 7 52 5 0 21 -17 35 -37z m-33 -103 c11 -11 20 -23
20 -28 0 -4 10 -12 23 -17 32 -14 31 -75 -2 -91 l-23 -12 28 -15 c32 -17 33
-16 -55 -41 -68 -20 -67 -20 -49 2 32 36 33 45 5 38 -49 -12 -89 54 -52 84 9
7 13 20 10 27 -5 16 11 53 29 65 19 13 45 9 66 -12z"/>
<path d="M3280 5100 c0 -5 5 -10 10 -10 6 0 10 5 10 10 0 6 -4 10 -10 10 -5 0
-10 -4 -10 -10z"/>
<path d="M3207 4993 c-4 -3 -7 -20 -7 -36 0 -17 -8 -39 -17 -49 -13 -15 -15
-23 -7 -36 16 -26 60 -27 74 -3 9 17 14 19 35 9 51 -23 76 44 25 69 -13 6 -28
21 -32 32 -5 15 -16 21 -36 21 -16 0 -32 -3 -35 -7z"/>
<path d="M3261 4839 c-10 -27 6 -37 34 -22 14 8 13 11 -4 27 -20 18 -21 18
-30 -5z"/>
<path d="M3020 5038 c0 -20 103 -383 111 -392 12 -13 279 64 279 81 0 19 -23
16 -144 -17 -60 -17 -110 -29 -112 -28 -1 2 -19 62 -39 133 -20 72 -43 154
-51 183 -9 32 -20 52 -29 52 -8 0 -15 -5 -15 -12z"/>
<path d="M2983 4976 c3 -8 29 -100 57 -203 29 -103 54 -190 56 -192 5 -6 284
71 284 78 -1 27 -22 27 -135 -5 -69 -19 -122 -29 -125 -24 -3 5 -28 88 -55
185 -41 150 -51 175 -68 175 -13 0 -17 -5 -14 -14z"/>
<path d="M3720 4870 l0 -260 258 2 257 3 0 255 0 255 -257 3 -258 2 0 -260z
m150 210 c20 0 50 -45 50 -76 0 -49 -30 -79 -80 -79 -50 0 -80 30 -80 79 0 44
52 92 88 80 8 -2 18 -4 22 -4z m311 -29 c38 -48 -5 -131 -67 -131 -33 0 -84
51 -84 83 0 76 103 109 151 48z m-286 -266 c44 -43 31 -112 -25 -135 -56 -23
-110 19 -110 86 0 35 42 74 80 74 19 0 40 -9 55 -25z m277 -5 c25 -26 29 -36
24 -63 -9 -45 -39 -71 -81 -71 -42 0 -72 26 -81 71 -5 27 -1 37 24 63 19 18
41 30 57 30 16 0 38 -12 57 -30z"/>
<path d="M3799 5053 c-25 -28 -29 -51 -17 -78 22 -49 97 -45 118 6 11 27 11
33 -7 57 -25 33 -72 41 -94 15z"/>
<path d="M4072 5050 c-43 -41 -13 -110 47 -110 56 0 80 69 38 108 -29 27 -57
28 -85 2z"/>
<path d="M3795 4770 c-24 -27 -22 -70 5 -92 30 -25 56 -23 85 7 30 29 31 45 4
79 -25 32 -68 35 -94 6z"/>
<path d="M4070 4770 c-44 -44 -7 -118 54 -106 53 11 72 59 40 104 -19 28 -67
29 -94 2z"/>
<path d="M1483 5061 c-132 -33 -222 -164 -210 -310 2 -36 8 -74 12 -83 5 -14
2 -18 -14 -18 -17 0 -21 -6 -21 -30 l0 -30 79 0 80 0 -30 56 c-52 99 -36 228
37 296 118 110 287 22 301 -156 5 -57 2 -72 -25 -130 l-31 -66 80 0 79 0 0 30
c0 25 -4 30 -25 30 -24 0 -25 2 -14 23 22 39 16 165 -10 223 -51 116 -181 191
-288 165z m85 -33 c4 -22 -42 -35 -63 -18 -12 10 -13 16 -3 27 15 19 62 13 66
-9z m-108 -23 c0 -18 -45 -49 -60 -40 -13 8 -13 28 2 43 17 17 58 15 58 -3z
m211 -6 c13 -25 -2 -40 -32 -32 -21 6 -42 36 -32 47 14 14 53 5 64 -15z m-295
-63 c8 -22 -14 -56 -36 -56 -25 0 -27 32 -4 54 19 20 33 20 40 2z m360 -12
c12 -18 14 -28 6 -36 -23 -23 -61 14 -48 47 8 22 23 18 42 -11z m-398 -115 c3
-27 -20 -55 -38 -44 -11 7 -14 58 -3 69 14 14 38 0 41 -25z m438 5 c7 -28 -16
-61 -35 -50 -12 8 -15 59 -4 69 14 15 33 6 39 -19z"/>
<path d="M1518 5023 c6 -2 18 -2 25 0 6 3 1 5 -13 5 -14 0 -19 -2 -12 -5z"/>
<path d="M1420 5000 c-8 -5 -12 -11 -9 -14 2 -3 11 -1 19 4 8 5 12 11 9 14 -2
3 -11 1 -19 -4z"/>
<path d="M1630 4995 c7 -8 17 -15 22 -15 6 0 5 7 -2 15 -7 8 -17 15 -22 15 -6
0 -5 -7 2 -15z"/>
<path d="M1347 4923 c-4 -3 -7 -11 -7 -17 0 -6 5 -5 12 2 6 6 9 14 7 17 -3 3
-9 2 -12 -2z"/>
<path d="M1710 4915 c0 -8 4 -15 10 -15 5 0 7 7 4 15 -4 8 -8 15 -10 15 -2 0
-4 -7 -4 -15z"/>
<path d="M1312 4800 c0 -14 2 -19 5 -12 2 6 2 18 0 25 -3 6 -5 1 -5 -13z"/>
<path d="M1746 4812 c-2 -4 -1 -14 5 -22 7 -12 9 -10 9 8 0 23 -5 28 -14 14z"/>
<path d="M2457 4823 c-4 -3 -7 -15 -7 -25 0 -27 85 -26 93 1 3 12 -1 22 -10
25 -20 8 -68 7 -76 -1z"/>
<path d="M2373 4800 c-45 -20 -52 -30 -29 -49 10 -8 23 -7 52 5 49 20 47 18
39 43 -8 25 -9 25 -62 1z"/>
<path d="M2560 4811 c0 -5 -2 -15 -5 -23 -3 -8 11 -20 41 -32 39 -16 47 -17
55 -5 14 22 11 27 -18 42 -43 22 -73 29 -73 18z"/>
<path d="M2280 4735 c-32 -33 -33 -36 -17 -52 16 -16 19 -16 48 14 29 28 30
33 17 52 -14 20 -15 20 -48 -14z"/>
<path d="M2395 4742 c-51 -24 -122 -103 -135 -151 -26 -95 -3 -186 65 -253 52
-52 109 -71 189 -66 86 5 149 43 194 118 31 51 33 60 30 131 -4 95 -38 158
-112 204 -63 39 -168 46 -231 17z m156 -124 c85 -63 91 -177 10 -178 l-26 -1
28 -24 c15 -13 27 -27 27 -30 0 -3 -36 -5 -80 -5 -44 0 -80 2 -80 5 0 3 12 17
28 30 l27 24 -24 1 c-50 0 -73 46 -52 102 11 29 81 98 99 98 7 0 26 -10 43
-22z"/>
<path d="M2466 4593 c-60 -59 -70 -110 -25 -133 15 -8 26 -7 48 6 27 16 30 16
46 1 20 -21 25 -21 53 -1 27 19 28 47 3 88 -16 26 -71 76 -83 76 -2 0 -21 -17
-42 -37z"/>
<path d="M2492 4430 c-17 -28 -16 -30 23 -30 l36 0 -18 25 c-22 30 -25 30 -41
5z"/>
<path d="M2667 4753 c-12 -11 -7 -27 18 -56 23 -26 27 -27 46 -13 l22 15 -31
30 c-31 31 -43 37 -55 24z"/>
<path d="M2208 4634 c-16 -38 -18 -48 -7 -55 25 -16 36 -9 52 33 12 31 14 45
6 55 -19 22 -29 15 -51 -33z"/>
<path d="M2736 4667 c-16 -11 -15 -15 1 -54 18 -44 27 -49 52 -34 11 7 11 15
2 44 -16 47 -33 60 -55 44z"/>
<path d="M2185 4540 c-4 -11 -4 -33 0 -49 5 -23 10 -27 29 -24 19 4 22 10 20
46 -1 34 -6 43 -22 45 -13 2 -23 -4 -27 -18z"/>
<path d="M2760 4516 c0 -35 4 -45 19 -49 27 -7 31 0 31 50 0 39 -2 43 -25 43
-23 0 -25 -4 -25 -44z"/>
<path d="M2207 4453 c-19 -5 -17 -23 10 -75 15 -31 25 -34 42 -15 8 10 6 24
-6 55 -9 23 -19 41 -22 41 -3 -1 -14 -3 -24 -6z"/>
<path d="M2739 4415 c-14 -38 -14 -46 -3 -56 19 -16 40 3 54 47 13 39 13 39
-15 48 -17 5 -23 -2 -36 -39z"/>
<path d="M2264 4345 c-18 -13 -17 -15 15 -49 33 -35 35 -35 48 -16 13 18 11
23 -15 50 -26 26 -32 28 -48 15z"/>
<path d="M2685 4330 c-28 -29 -29 -60 -1 -60 12 0 72 60 64 64 -2 1 -10 7 -19
14 -13 10 -21 6 -44 -18z"/>
<path d="M2340 4270 c-10 -19 -7 -23 36 -41 38 -17 48 -19 55 -8 15 25 10 35
-28 49 -21 8 -41 16 -45 18 -4 2 -12 -6 -18 -18z"/>
<path d="M2588 4272 c-30 -14 -36 -21 -32 -37 9 -28 9 -28 49 -14 47 17 61 34
45 54 -15 18 -14 18 -62 -3z"/>
<path d="M2450 4225 c0 -23 4 -25 43 -25 50 0 57 4 50 31 -4 15 -14 19 -49 19
-40 0 -44 -2 -44 -25z"/>
<path d="M4454 4751 l-32 -6 20 -52 19 -53 85 0 85 0 20 46 c11 26 18 48 17
49 -18 13 -68 21 -82 13 -16 -9 -43 -8 -86 5 -8 2 -29 2 -46 -2z"/>
<path d="M4426 4585 c-8 -23 9 -26 120 -23 80 2 99 6 99 18 0 23 -210 28 -219
5z"/>
<path d="M744 4533 l-32 -4 22 -55 21 -54 82 0 c80 0 83 1 96 28 30 58 30 69
-3 81 -21 7 -39 7 -57 0 -14 -5 -35 -7 -47 -3 -34 9 -49 11 -82 7z"/>
<path d="M4368 4485 c-127 -101 -200 -305 -150 -418 42 -94 150 -142 322 -141
129 1 200 24 254 84 41 45 50 85 44 182 -7 86 -65 211 -130 277 l-43 44 -129
1 -130 1 -38 -30z m220 -60 c50 -53 56 -90 16 -105 -40 -16 -61 -12 -69 13 -6
20 -8 20 -12 3 -3 -12 10 -33 40 -65 56 -58 67 -79 67 -133 0 -36 -6 -50 -39
-86 -52 -56 -83 -57 -129 -2 -37 45 -57 93 -48 116 4 11 17 14 48 12 36 -2 44
-7 46 -25 4 -24 16 -30 27 -13 3 5 -16 34 -43 62 -61 66 -72 86 -72 137 0 31
7 49 32 78 18 21 37 41 43 45 23 17 53 5 93 -37z"/>
<path d="M4478 4421 c-64 -62 -57 -122 24 -203 38 -38 49 -55 46 -76 -4 -38
-33 -40 -52 -4 -12 24 -20 28 -41 25 -40 -8 -29 -53 27 -105 37 -36 48 -35 92
4 66 58 57 121 -31 206 -34 33 -44 49 -41 70 4 34 37 43 45 13 4 -15 13 -21
34 -21 15 0 30 3 33 8 9 14 -22 70 -43 77 -12 3 -21 13 -21 21 0 23 -42 14
-72 -15z"/>
<path d="M727 4374 c-4 -4 -7 -13 -7 -21 0 -11 22 -13 108 -11 87 2 107 6 107
18 0 12 -19 16 -101 18 -55 1 -103 0 -107 -4z"/>
<path d="M632 4235 c-74 -70 -116 -148 -132 -248 -19 -120 14 -188 115 -237
177 -86 427 -50 494 70 59 107 15 292 -102 424 l-42 48 -135 1 -135 2 -63 -60z
m251 -31 c23 -29 37 -57 37 -74 0 -24 -5 -29 -35 -34 -39 -8 -55 -2 -55 20 0
8 -4 14 -10 14 -23 0 -7 -35 40 -84 81 -86 86 -154 16 -222 -40 -39 -92 -47
-103 -16 -4 9 -17 25 -29 34 -22 18 -44 82 -36 106 2 7 21 12 43 12 33 0 41
-4 49 -25 5 -14 14 -25 20 -25 24 0 6 33 -45 85 -79 82 -85 140 -22 216 46 56
80 54 130 -7z"/>
<path d="M763 4195 c-28 -29 -33 -42 -33 -80 0 -43 5 -51 56 -105 45 -47 55
-64 52 -87 -5 -41 -36 -43 -49 -3 -10 28 -15 31 -38 25 -33 -8 -33 -8 -26 -38
8 -30 70 -97 90 -97 9 0 34 18 55 39 63 62 56 105 -31 198 -50 53 -53 60 -43
87 9 22 29 20 46 -6 11 -17 20 -20 42 -14 22 5 26 11 21 29 -9 29 -71 87 -93
86 -9 0 -32 -16 -49 -34z"/>
<path d="M5191 4073 c-59 -21 -133 -96 -149 -149 -45 -153 46 -310 209 -359
50 -15 57 -20 49 -35 -8 -14 -4 -20 21 -30 16 -7 31 -11 33 -9 5 6 66 128 66
133 0 2 -28 3 -63 2 -216 -4 -344 250 -178 355 37 24 56 29 108 29 97 0 172
-45 234 -140 l16 -25 37 72 36 72 -30 16 c-27 14 -30 14 -39 -4 -10 -18 -12
-18 -41 9 -75 70 -213 99 -309 63z m119 -23 c0 -23 -45 -39 -62 -22 -18 18 -1
42 32 42 23 0 30 -4 30 -20z m97 -5 c25 -17 21 -45 -6 -45 -27 0 -55 25 -48
44 8 20 26 20 54 1z m-211 -10 c9 -21 -14 -45 -42 -45 -28 0 -31 16 -7 42 20
22 42 23 49 3z m-81 -75 c9 -15 -4 -47 -22 -54 -26 -10 -38 9 -25 39 12 25 36
33 47 15z m-27 -138 c3 -27 0 -32 -17 -32 -22 0 -39 39 -26 60 14 22 40 5 43
-28z m37 -86 c15 -22 12 -56 -5 -56 -15 0 -40 31 -40 49 0 37 23 41 45 7z m86
-87 c14 -14 18 -24 11 -31 -14 -14 -58 -2 -66 18 -14 37 22 46 55 13z"/>
<path d="M5265 4050 c-3 -5 1 -10 9 -10 9 0 16 5 16 10 0 6 -4 10 -9 10 -6 0
-13 -4 -16 -10z"/>
<path d="M5375 4030 c3 -5 14 -10 23 -10 15 0 15 2 2 10 -20 13 -33 13 -25 0z"/>
<path d="M5155 4020 c-3 -5 1 -10 9 -10 9 0 16 5 16 10 0 6 -4 10 -9 10 -6 0
-13 -4 -16 -10z"/>
<path d="M5087 3943 c-4 -3 -7 -11 -7 -17 0 -6 5 -5 12 2 6 6 9 14 7 17 -3 3
-9 2 -12 -2z"/>
<path d="M5060 3826 c0 -9 5 -16 10 -16 6 0 10 4 10 9 0 6 -4 13 -10 16 -5 3
-10 -1 -10 -9z"/>
<path d="M5100 3721 c0 -5 5 -13 10 -16 6 -3 10 -2 10 4 0 5 -4 13 -10 16 -5
3 -10 2 -10 -4z"/>
<path d="M5175 3640 c3 -5 11 -10 16 -10 6 0 7 5 4 10 -3 6 -11 10 -16 10 -6
0 -7 -4 -4 -10z"/>
<path d="M2548 3963 c-10 -2 -18 -12 -18 -21 0 -34 16 -43 66 -40 44 3 49 5
52 29 2 20 -2 28 -20 33 -25 6 -53 6 -80 -1z"/>
<path d="M2480 3950 c-21 -6 -88 -37 -98 -45 -7 -6 23 -45 34 -45 23 0 104 41
103 53 -2 32 -14 44 -39 37z"/>
<path d="M2669 3933 c-12 -31 -9 -34 54 -57 47 -18 49 -17 62 0 8 11 15 22 15
26 0 9 -30 25 -81 43 -39 14 -40 14 -50 -12z"/>
<path d="M2315 3849 l-40 -40 24 -20 24 -20 38 37 c36 35 37 38 22 60 -8 13
-18 24 -22 24 -4 0 -25 -18 -46 -41z"/>
<path d="M2519 3877 c-98 -28 -177 -95 -216 -184 -27 -61 -23 -186 7 -248 32
-64 89 -121 153 -151 79 -37 184 -34 265 6 108 54 163 138 170 261 4 67 1 84
-21 132 -66 144 -218 223 -358 184z m129 -173 c12 -14 22 -32 22 -41 0 -8 14
-28 30 -43 35 -33 38 -67 9 -104 -15 -19 -29 -26 -56 -26 l-36 0 23 -25 c13
-14 29 -25 37 -25 7 0 13 -4 13 -10 0 -6 -40 -10 -100 -10 -55 0 -100 3 -100
8 0 4 14 15 30 24 37 21 39 38 3 38 -15 0 -37 10 -50 22 -33 31 -30 73 7 108
17 15 30 35 30 43 0 30 14 49 44 63 38 16 64 10 94 -22z"/>
<path d="M2552 3704 c-15 -11 -22 -25 -22 -50 0 -23 -5 -34 -14 -34 -38 0 -62
-70 -34 -98 18 -18 59 -14 84 9 l22 20 20 -21 c30 -32 83 -25 96 13 12 33 1
57 -32 72 -15 7 -22 19 -22 37 0 32 -31 68 -58 68 -10 0 -28 -7 -40 -16z"/>
<path d="M2563 3474 l-22 -34 45 0 c47 0 49 5 12 52 -12 15 -15 13 -35 -18z"/>
<path d="M2801 3867 c-11 -21 -9 -27 24 -60 31 -31 39 -35 56 -24 10 6 19 17
19 22 0 11 -71 85 -81 85 -3 0 -11 -10 -18 -23z"/>
<path d="M2251 3767 c-19 -24 -42 -100 -32 -110 5 -5 19 -7 31 -5 16 2 27 16
41 53 18 47 18 51 2 63 -21 15 -28 15 -42 -1z"/>
<path d="M2888 3766 c-17 -12 -16 -16 4 -64 18 -42 27 -52 45 -52 34 0 37 21
12 79 -22 53 -32 59 -61 37z"/>
<path d="M2207 3633 c-8 -8 -9 -107 -1 -115 3 -3 17 -3 32 1 24 7 26 11 23 57
-1 27 -3 50 -4 50 -10 8 -45 13 -50 7z"/>
<path d="M2938 3633 c-14 -4 -18 -15 -18 -58 0 -48 2 -53 25 -57 13 -3 27 -3
30 0 3 3 5 32 5 64 0 59 -2 62 -42 51z"/>
<path d="M2215 3490 c-7 -12 40 -120 53 -120 4 0 16 6 25 13 16 11 16 15 -2
62 -15 40 -24 51 -44 53 -14 2 -28 -2 -32 -8z"/>
<path d="M2892 3448 c-20 -48 -21 -52 -4 -64 28 -22 39 -16 61 35 28 67 27 81
-7 81 -24 0 -31 -7 -50 -52z"/>
<path d="M2298 3366 c-26 -19 -23 -27 23 -71 l40 -40 19 25 19 25 -37 38 c-40
42 -40 41 -64 23z"/>
<path d="M2821 3343 c-30 -32 -32 -37 -21 -59 8 -13 16 -24 20 -24 3 0 25 20
49 44 l43 44 -23 16 c-30 20 -28 21 -68 -21z"/>
<path d="M2396 3275 c-9 -13 -16 -26 -16 -28 0 -7 97 -47 113 -47 15 0 27 20
27 46 0 8 -7 14 -15 14 -9 0 -33 9 -54 20 l-39 19 -16 -24z"/>
<path d="M2714 3274 c-45 -21 -51 -27 -46 -49 3 -16 11 -25 23 -25 22 0 109
41 109 51 0 4 -8 16 -17 27 -18 20 -18 20 -69 -4z"/>
<path d="M2536 3235 c-15 -39 -8 -45 55 -45 60 0 60 0 57 28 -3 25 -7 27 -54
30 -40 2 -53 -1 -58 -13z"/>
<path d="M1462 3543 c3 -27 6 -28 61 -31 31 -2 57 1 57 5 0 4 3 18 6 31 6 21
4 22 -60 22 l-67 0 3 -27z"/>
<path d="M1352 3535 c-47 -22 -52 -27 -42 -44 16 -31 23 -31 84 -9 40 15 55
25 51 35 -3 8 -5 21 -5 29 0 20 -28 17 -88 -11z"/>
<path d="M1606 3544 c-12 -32 -5 -41 50 -63 53 -23 55 -23 69 -5 20 27 15 36
-36 61 -53 27 -75 28 -83 7z"/>
<path d="M1250 3467 c-15 -12 -34 -32 -44 -44 -17 -21 -17 -22 8 -38 26 -17
27 -17 65 20 37 37 39 39 24 62 -19 28 -22 28 -53 0z"/>
<path d="M1423 3472 c-141 -51 -224 -164 -225 -308 0 -89 25 -154 83 -219 71
-77 140 -108 238 -109 61 0 87 5 132 26 76 35 133 88 166 156 24 49 28 69 28
142 0 73 -4 93 -28 141 -32 66 -100 132 -163 160 -65 29 -167 34 -231 11z
m185 -187 c27 -24 57 -60 66 -79 35 -74 9 -139 -57 -140 -21 -1 -37 -3 -37 -5
0 -11 45 -51 57 -51 7 0 13 -4 13 -10 0 -6 -44 -10 -112 -10 l-113 0 25 20
c14 11 27 20 30 20 3 0 11 9 18 20 11 18 10 19 -18 14 -24 -5 -35 -1 -61 25
-27 28 -30 36 -24 69 3 20 17 54 31 75 25 38 97 97 119 97 7 0 35 -20 63 -45z"/>
<path d="M1488 3271 c-79 -70 -99 -157 -43 -183 25 -11 46 -6 86 23 13 10 20
8 37 -9 26 -26 49 -28 80 -6 26 18 29 61 8 103 -15 29 -100 111 -114 111 -5 0
-29 -18 -54 -39z"/>
<path d="M1530 3068 c0 -6 -10 -22 -22 -35 l-21 -23 51 0 52 0 -22 35 c-23 35
-38 44 -38 23z"/>
<path d="M1746 3468 c-15 -22 -14 -24 23 -61 35 -35 40 -38 60 -26 11 8 21 19
21 24 0 12 -71 85 -82 85 -4 0 -14 -10 -22 -22z"/>
<path d="M1150 3336 c-11 -24 -21 -54 -22 -67 -3 -20 2 -24 30 -27 24 -2 32 1
32 13 0 9 9 33 20 55 l20 39 -22 15 c-32 23 -37 21 -58 -28z"/>
<path d="M1837 3362 c-16 -17 -15 -22 5 -71 19 -45 26 -52 48 -49 33 4 36 26
9 87 -23 55 -36 62 -62 33z"/>
<path d="M1115 3222 c-3 -3 -5 -32 -5 -64 l0 -59 33 3 c32 3 32 4 35 59 3 56
3 57 -28 61 -16 3 -32 2 -35 0z"/>
<path d="M1893 3223 c-21 -4 -23 -10 -23 -64 0 -58 0 -59 29 -59 23 0 30 5 34
29 7 32 -2 102 -12 100 -3 -1 -16 -4 -28 -6z"/>
<path d="M1155 3082 c-36 -7 -37 -19 -10 -81 15 -34 30 -61 32 -61 2 0 15 7
28 16 l24 16 -19 39 c-11 21 -20 45 -20 53 0 19 -10 24 -35 18z"/>
<path d="M1842 3028 l-23 -53 22 -17 c27 -23 36 -16 60 39 27 64 25 83 -9 83
-24 0 -31 -7 -50 -52z"/>
<path d="M1205 2934 c-19 -14 -18 -16 28 -62 l48 -47 19 25 19 25 -37 38 c-40
41 -48 43 -77 21z"/>
<path d="M1767 2914 c-37 -34 -38 -36 -22 -60 8 -13 19 -24 23 -24 12 0 82 75
82 88 0 9 -31 33 -42 32 -2 0 -20 -17 -41 -36z"/>
<path d="M1315 2838 c-14 -21 -14 -24 1 -35 19 -14 114 -47 118 -42 2 2 6 16
9 30 6 23 2 27 -46 47 -64 27 -62 27 -82 0z"/>
<path d="M1665 2845 c-16 -7 -38 -16 -47 -19 -19 -6 -23 -32 -9 -55 8 -12 16
-12 54 3 69 26 82 38 68 64 -13 25 -24 26 -66 7z"/>
<path d="M1465 2802 c-3 -8 -5 -22 -5 -33 0 -17 8 -19 66 -19 64 0 66 1 60 23
-3 12 -6 27 -6 32 0 16 -109 13 -115 -3z"/>
<path d="M4252 3543 c3 -27 5 -28 58 -28 53 0 55 1 58 28 3 27 3 27 -58 27
-61 0 -61 0 -58 -27z"/>
<path d="M4161 3544 c-56 -24 -63 -32 -45 -59 l15 -23 52 21 c29 12 53 22 55
23 2 1 0 13 -4 28 -7 30 -23 32 -73 10z"/>
<path d="M4386 3534 c-4 -15 -6 -27 -4 -28 2 -1 27 -11 56 -23 l52 -21 15 21
c8 12 15 24 15 28 0 8 -94 49 -113 49 -8 0 -18 -12 -21 -26z"/>
<path d="M4041 3465 c-47 -42 -50 -55 -20 -73 19 -12 25 -10 55 19 37 36 40
45 20 72 -14 17 -17 16 -55 -18z"/>
<path d="M4520 3475 c-13 -24 -12 -28 22 -61 31 -31 38 -35 57 -25 11 7 21 18
21 25 0 11 -73 86 -83 86 -2 0 -10 -11 -17 -25z"/>
<path d="M4194 3470 c-62 -24 -134 -93 -166 -158 -32 -64 -32 -186 -1 -253 30
-66 86 -124 151 -156 74 -36 182 -39 253 -6 64 29 125 87 157 147 23 44 27 64
27 136 0 69 -4 94 -23 132 -29 59 -89 121 -144 149 -62 32 -185 36 -254 9z
m171 -155 c14 -13 25 -35 25 -49 0 -15 7 -27 19 -31 10 -3 24 -19 31 -35 22
-53 -9 -100 -68 -100 l-37 -1 37 -33 c21 -18 35 -36 31 -39 -8 -9 -188 -9
-196 -1 -3 4 8 16 25 28 45 30 47 46 4 46 -40 0 -66 28 -66 70 0 31 26 70 46
70 9 0 14 10 14 27 0 66 87 97 135 48z"/>
<path d="M4282 3319 c-23 -9 -45 -50 -37 -71 3 -7 -8 -21 -25 -30 -38 -22 -42
-69 -8 -92 30 -21 44 -20 70 6 17 17 24 19 37 9 43 -31 60 -34 86 -17 37 24
35 71 -5 94 -21 12 -30 25 -30 43 0 42 -47 73 -88 58z"/>
<path d="M4282 3079 l-23 -39 50 0 50 0 -25 37 c-14 21 -26 38 -27 40 -1 1
-13 -16 -25 -38z"/>
<path d="M3973 3378 c-13 -17 -47 -107 -42 -112 2 -2 16 -6 30 -9 24 -6 28 -3
47 50 20 53 20 57 4 69 -22 17 -27 17 -39 2z"/>
<path d="M4608 3377 c-16 -13 -15 -17 5 -70 20 -51 24 -55 47 -50 14 3 27 7
28 9 6 4 -19 77 -34 102 -16 25 -22 26 -46 9z"/>
<path d="M3920 3180 c0 -62 6 -69 44 -54 12 5 16 20 16 60 0 53 0 54 -30 54
l-30 0 0 -60z"/>
<path d="M4640 3186 c0 -40 4 -55 16 -60 38 -15 44 -8 44 54 l0 60 -30 0 c-30
0 -30 -1 -30 -54z"/>
<path d="M3941 3101 c-12 -8 -12 -16 3 -54 9 -24 22 -51 29 -60 11 -15 14 -15
35 1 l22 17 -22 53 c-22 51 -37 62 -67 43z"/>
<path d="M4612 3058 l-22 -53 22 -17 c21 -16 24 -16 35 -1 7 9 20 36 29 60 15
38 15 46 3 54 -30 19 -45 8 -67 -43z"/>
<path d="M4018 2971 l-23 -20 40 -40 c21 -23 43 -41 47 -41 5 0 13 10 19 23 9
20 5 28 -24 60 l-35 37 -24 -19z"/>
<path d="M4542 2951 c-29 -30 -32 -38 -23 -58 14 -31 21 -29 65 14 39 39 41
50 10 68 -16 10 -24 6 -52 -24z"/>
<path d="M4116 2879 c-8 -12 -13 -26 -10 -30 6 -10 115 -51 121 -46 2 3 5 17
6 31 2 23 -4 30 -33 40 -19 7 -42 16 -51 20 -12 5 -22 0 -33 -15z"/>
<path d="M4428 2877 c-43 -18 -47 -23 -41 -46 3 -14 7 -27 8 -29 4 -5 115 39
120 48 7 12 -17 50 -30 49 -5 -1 -31 -10 -57 -22z"/>
<path d="M4254 2833 c-9 -35 6 -45 62 -41 47 3 49 4 49 32 0 28 -2 29 -53 31
-48 2 -53 0 -58 -22z"/>
<path d="M3280 3041 c-78 -25 -137 -81 -173 -160 -21 -48 -29 -161 -15 -212 6
-22 4 -28 -12 -32 -15 -4 -20 -14 -20 -36 l0 -31 75 0 c41 0 75 2 75 4 0 2
-12 29 -26 60 -22 49 -26 68 -23 135 3 65 9 84 32 120 41 62 80 83 147 79 71
-5 112 -34 147 -105 22 -47 25 -63 21 -126 -4 -56 -11 -84 -32 -120 l-28 -47
76 0 76 0 0 35 c0 29 -4 35 -20 35 -18 0 -19 3 -9 22 6 11 12 53 12 92 0 112
-52 211 -137 261 -47 27 -125 40 -166 26z m88 -32 c2 -10 -6 -19 -18 -22 -31
-8 -50 2 -50 25 0 16 6 19 32 16 21 -2 34 -9 36 -19z m-103 -10 c9 -14 -24
-49 -47 -49 -11 0 -18 7 -18 20 0 30 51 53 65 29z m187 -6 c26 -23 23 -43 -7
-43 -25 0 -51 32 -40 50 9 15 26 12 47 -7z m-266 -74 c10 -17 -17 -59 -38 -59
-20 0 -23 21 -8 51 12 21 35 25 46 8z m344 -10 c14 -25 6 -49 -14 -49 -19 0
-40 36 -32 56 8 21 34 17 46 -7z m-385 -124 c0 -23 -4 -30 -20 -30 -21 0 -31
25 -21 51 11 28 41 12 41 -21z m421 9 c8 -29 -7 -49 -30 -41 -16 6 -22 48 -9
60 14 15 33 6 39 -19z"/>
<path d="M3320 3010 c0 -5 7 -10 16 -10 8 0 12 5 9 10 -3 6 -10 10 -16 10 -5
0 -9 -4 -9 -10z"/>
<path d="M3225 2980 c-3 -5 -2 -10 4 -10 5 0 13 5 16 10 3 6 2 10 -4 10 -5 0
-13 -4 -16 -10z"/>
<path d="M3430 2975 c7 -9 15 -13 17 -11 7 7 -7 26 -19 26 -6 0 -6 -6 2 -15z"/>
<path d="M3157 2903 c-4 -3 -7 -11 -7 -17 0 -6 5 -5 12 2 6 6 9 14 7 17 -3 3
-9 2 -12 -2z"/>
<path d="M3500 2901 c0 -5 5 -13 10 -16 6 -3 10 -2 10 4 0 5 -4 13 -10 16 -5
3 -10 2 -10 -4z"/>
<path d="M3121 2784 c0 -11 3 -14 6 -6 3 7 2 16 -1 19 -3 4 -6 -2 -5 -13z"/>
<path d="M3541 2784 c0 -11 3 -14 6 -6 3 7 2 16 -1 19 -3 4 -6 -2 -5 -13z"/>
<path d="M2382 2908 c-30 -30 -3 -82 40 -76 29 4 47 50 28 72 -15 19 -51 21
-68 4z"/>
<path d="M2572 2908 c-7 -7 -12 -21 -12 -33 0 -12 5 -26 12 -33 7 -7 21 -12
33 -12 12 0 26 5 33 12 7 7 12 21 12 33 0 12 -5 26 -12 33 -7 7 -21 12 -33 12
-12 0 -26 -5 -33 -12z"/>
<path d="M5080 2500 l0 -30 60 0 c33 0 60 3 60 8 0 4 3 17 6 30 6 21 4 22 -60
22 l-66 0 0 -30z"/>
<path d="M4972 2495 c-47 -22 -52 -27 -42 -44 16 -31 23 -31 84 -9 40 15 55
25 51 35 -3 8 -5 21 -5 29 0 20 -28 17 -88 -11z"/>
<path d="M5227 2514 c-4 -4 -7 -17 -7 -29 0 -16 13 -27 56 -44 53 -23 55 -23
69 -5 8 11 13 24 12 29 -6 22 -116 63 -130 49z"/>
<path d="M4850 2409 c-38 -40 -40 -43 -24 -60 23 -26 28 -24 73 19 36 35 38
38 23 60 -8 12 -18 22 -23 22 -5 0 -27 -19 -49 -41z"/>
<path d="M5043 2432 c-125 -45 -199 -129 -222 -255 -26 -144 52 -292 189 -356
78 -36 182 -36 261 1 76 35 133 88 166 156 37 76 40 201 6 274 -69 151 -252
233 -400 180z m181 -183 c85 -75 109 -157 60 -206 -19 -19 -33 -24 -55 -21
-16 3 -29 2 -29 -1 0 -11 44 -51 57 -51 7 0 13 -4 13 -10 0 -6 -44 -10 -112
-10 -102 1 -111 2 -93 16 11 8 29 22 40 31 l20 17 -20 4 c-69 11 -104 54 -91
109 15 61 110 163 151 163 7 0 33 -19 59 -41z"/>
<path d="M5108 2231 c-79 -70 -99 -157 -43 -183 25 -11 46 -6 86 23 13 10 20
8 37 -9 27 -27 56 -28 82 -2 24 24 26 60 6 99 -15 29 -100 111 -114 111 -5 0
-29 -18 -54 -39z"/>
<path d="M5150 2028 c0 -6 -10 -22 -22 -35 l-21 -23 51 0 51 0 -22 35 c-23 35
-37 44 -37 23z"/>
<path d="M5365 2430 c-19 -20 -18 -22 22 -61 37 -37 42 -40 62 -28 11 8 21 19
21 24 0 11 -71 85 -81 85 -3 0 -14 -9 -24 -20z"/>
<path d="M4770 2296 c-11 -24 -21 -54 -22 -67 -3 -20 1 -24 25 -24 23 0 31 8
51 52 l24 52 -23 15 c-14 9 -27 16 -30 16 -3 0 -15 -20 -25 -44z"/>
<path d="M5457 2322 c-16 -17 -15 -22 5 -70 19 -45 26 -52 50 -52 35 0 37 26
5 89 -26 52 -37 58 -60 33z"/>
<path d="M4736 2182 c-8 -7 -8 -117 0 -124 3 -3 17 -3 32 1 25 7 27 11 27 61
0 50 -2 54 -27 61 -15 4 -29 4 -32 1z"/>
<path d="M5518 2183 c-27 -4 -28 -7 -28 -63 0 -57 1 -58 30 -62 l30 -5 0 69
c0 37 -1 67 -2 67 -2 -1 -15 -4 -30 -6z"/>
<path d="M4740 2030 c0 -17 41 -119 50 -125 5 -3 21 2 34 11 l25 16 -19 39
c-11 21 -20 45 -20 54 0 11 -10 15 -35 15 -19 0 -35 -4 -35 -10z"/>
<path d="M5462 1988 l-23 -53 22 -17 c27 -23 36 -16 60 39 27 64 25 83 -9 83
-24 0 -31 -7 -50 -52z"/>
<path d="M4826 1895 c-18 -13 -18 -15 5 -43 13 -16 35 -37 48 -47 23 -18 24
-17 42 6 18 24 18 24 -19 62 -40 41 -48 43 -76 22z"/>
<path d="M5387 1872 c-38 -39 -38 -39 -19 -62 l19 -23 41 38 c46 41 52 59 23
75 -26 13 -22 15 -64 -28z"/>
<path d="M4943 1808 c-26 -34 -24 -39 32 -63 63 -28 85 -31 85 -11 0 8 2 21 5
28 4 10 -11 21 -47 36 -62 26 -63 26 -75 10z"/>
<path d="M5268 1798 c-48 -20 -58 -38 -39 -67 8 -12 16 -12 54 3 69 26 82 38
68 64 -14 26 -22 26 -83 0z"/>
<path d="M5084 1771 c-2 -2 -4 -17 -4 -33 0 -28 0 -28 65 -28 67 0 72 4 56 44
-6 14 -18 19 -60 20 -29 0 -55 -1 -57 -3z"/>
<path d="M4133 2493 c-27 -5 -28 -12 -9 -58 l15 -35 71 0 71 0 15 36 c19 46 9
55 -56 52 -25 -2 -54 0 -65 3 -11 3 -30 4 -42 2z"/>
<path d="M4110 2345 c0 -12 17 -15 90 -15 73 0 90 3 90 15 0 12 -17 15 -90 15
-73 0 -90 -3 -90 -15z"/>
<path d="M4158 2303 c23 -2 61 -2 85 0 23 2 4 4 -43 4 -47 0 -66 -2 -42 -4z"/>
<path d="M4049 2257 c-55 -49 -89 -100 -110 -168 -34 -109 -20 -184 42 -232
95 -72 273 -83 389 -24 98 49 116 166 48 309 -19 40 -51 90 -70 111 l-35 37
-114 0 -114 0 -36 -33z m199 -42 c43 -47 43 -81 0 -90 -23 -6 -35 -3 -43 9
-17 22 -24 20 -18 -5 3 -11 16 -27 29 -36 35 -22 64 -76 64 -116 0 -46 -52
-107 -90 -107 -33 0 -90 71 -90 112 0 25 3 28 36 28 27 0 37 -5 41 -20 3 -11
9 -20 14 -20 20 0 7 25 -36 71 -66 71 -71 117 -18 178 37 42 69 41 111 -4z"/>
<path d="M4153 2216 c-54 -54 -49 -103 18 -172 29 -29 40 -48 37 -64 -4 -33
-26 -36 -39 -6 -14 29 -59 37 -59 10 0 -30 57 -104 81 -104 5 0 25 16 44 35
54 53 47 97 -26 168 -39 38 -49 69 -27 83 7 4 17 -1 25 -13 19 -29 66 -20 57
11 -8 25 -60 76 -77 75 -7 -1 -22 -11 -34 -23z"/>
<path d="M1095 2347 c-3 -7 -4 -123 -3 -257 l3 -245 255 0 255 0 3 258 2 257
-255 0 c-197 0 -257 -3 -260 -13z m183 -63 c30 -34 28 -70 -7 -105 -33 -32
-65 -37 -99 -13 -52 36 -48 109 7 139 33 19 70 11 99 -21z m251 21 c33 -16 41
-33 41 -80 0 -57 -61 -91 -113 -63 -45 24 -58 63 -36 112 20 42 63 55 108 31z
m-269 -280 c57 -29 47 -121 -15 -145 -56 -21 -123 38 -109 95 7 30 49 65 76
65 10 0 32 -7 48 -15z m284 -6 c48 -38 26 -136 -31 -140 -41 -3 -59 4 -82 28
-18 21 -22 34 -17 62 10 65 78 91 130 50z"/>
<path d="M1171 2274 c-26 -34 -26 -54 -1 -82 27 -29 65 -28 94 1 28 28 25 70
-7 92 -32 22 -63 18 -86 -11z"/>
<path d="M1452 2284 c-33 -23 -28 -82 10 -103 61 -35 123 31 81 87 -24 32 -59
39 -91 16z"/>
<path d="M1170 2000 c-26 -26 -25 -51 1 -84 23 -30 49 -33 84 -10 18 12 25 25
25 49 0 59 -68 87 -110 45z"/>
<path d="M1447 2002 c-25 -27 -22 -78 5 -96 12 -9 31 -16 41 -16 24 0 67 44
67 70 0 50 -79 80 -113 42z"/>
<path d="M2100 1990 l0 -260 265 0 265 0 0 260 0 260 -265 0 -265 0 0 -260z
m466 168 c9 -17 12 -38 8 -51 -27 -91 -146 -88 -160 3 -15 91 110 130 152 48z
m-273 -259 c55 -67 -23 -165 -101 -125 -51 26 -59 90 -16 133 21 21 32 24 62
19 20 -3 45 -15 55 -27z"/>
<path d="M2464 2172 c-21 -13 -32 -47 -23 -69 8 -21 37 -43 58 -43 19 0 51 39
51 63 0 42 -53 72 -86 49z"/>
<path d="M2187 1882 c-22 -25 -21 -55 2 -76 27 -25 72 -17 90 15 13 24 13 29
-2 53 -21 31 -66 35 -90 8z"/>
<path d="M3197 2263 c-4 -3 -7 -15 -7 -25 0 -27 85 -26 93 1 3 11 2 22 -1 25
-8 8 -77 7 -85 -1z"/>
<path d="M3112 2240 c-39 -18 -42 -22 -32 -40 6 -12 14 -20 18 -18 4 2 24 10
45 18 28 11 37 19 35 34 -4 27 -17 28 -66 6z"/>
<path d="M3300 2237 c0 -18 9 -28 41 -42 35 -16 42 -17 50 -4 16 26 -3 44 -68
64 -19 5 -23 3 -23 -18z"/>
<path d="M3019 2174 c-32 -34 -33 -36 -15 -49 16 -13 22 -11 48 15 24 25 27
33 18 50 -6 11 -12 20 -13 20 -2 0 -19 -16 -38 -36z"/>
<path d="M3135 2181 c-51 -23 -118 -98 -133 -149 -27 -88 -9 -170 52 -239 51
-58 104 -82 179 -83 142 0 250 104 249 244 0 143 -103 246 -247 246 -37 0 -76
-8 -100 -19z m162 -127 c81 -62 84 -173 4 -174 l-26 -1 28 -24 c15 -13 27 -27
27 -30 0 -3 -36 -5 -80 -5 -44 0 -80 3 -80 6 0 3 12 15 26 27 l26 20 -32 11
c-43 14 -54 34 -46 78 7 38 78 118 105 118 8 0 29 -11 48 -26z"/>
<path d="M3208 2033 c-36 -39 -58 -73 -58 -92 0 -14 37 -51 50 -51 6 0 19 9
30 20 l21 21 25 -20 c43 -34 84 0 69 56 -6 26 -77 103 -93 103 -5 0 -24 -17
-44 -37z"/>
<path d="M3232 1870 c-17 -28 -16 -30 23 -30 l36 0 -18 25 c-22 30 -25 30 -41
5z"/>
<path d="M3403 2184 c-4 -10 5 -26 23 -44 25 -25 31 -27 47 -16 17 13 16 15
-9 45 -28 34 -51 40 -61 15z"/>
<path d="M2949 2074 c-23 -50 -23 -49 7 -58 17 -5 23 0 37 35 12 32 14 46 6
56 -19 22 -29 15 -50 -33z"/>
<path d="M3473 2109 c-7 -7 -5 -23 6 -55 16 -45 25 -51 50 -35 12 8 12 16 -3
55 -18 46 -32 56 -53 35z"/>
<path d="M2930 1959 c0 -45 2 -49 23 -49 22 0 24 4 23 44 -1 38 -4 45 -23 49
-21 4 -23 1 -23 -44z"/>
<path d="M3500 1955 c0 -41 2 -45 25 -45 23 0 25 4 25 45 0 41 -2 45 -25 45
-23 0 -25 -4 -25 -45z"/>
<path d="M2948 1892 c-14 -6 -15 -11 -3 -46 18 -52 31 -64 50 -45 13 13 13 20
-1 57 -18 44 -19 45 -46 34z"/>
<path d="M3479 1856 c-11 -32 -13 -48 -6 -55 21 -21 35 -11 53 35 15 39 15 47
3 55 -25 16 -34 10 -50 -35z"/>
<path d="M3000 1784 c-11 -13 -9 -20 18 -47 30 -30 33 -30 49 -14 16 16 15 18
-12 47 -33 34 -38 36 -55 14z"/>
<path d="M3425 1770 c-28 -29 -29 -60 -1 -60 12 0 72 60 64 64 -2 1 -10 7 -19
14 -13 10 -21 6 -44 -18z"/>
<path d="M3080 1710 c-10 -19 -7 -22 36 -41 38 -17 48 -19 55 -8 15 24 10 37
-18 47 -16 5 -36 13 -45 17 -11 4 -20 0 -28 -15z"/>
<path d="M3330 1712 c-27 -13 -34 -22 -32 -40 3 -18 8 -22 25 -16 69 21 81 31
71 58 -8 20 -19 19 -64 -2z"/>
<path d="M3192 1668 c2 -18 11 -24 36 -26 47 -5 61 3 55 27 -4 17 -13 21 -50
21 -40 0 -44 -2 -41 -22z"/>
<path d="M4595 1583 c-71 -14 -131 -26 -132 -27 -5 -5 50 -291 57 -299 4 -4
73 4 154 19 137 26 147 29 142 48 -2 12 -15 81 -27 154 -21 119 -26 132 -44
131 -11 -1 -78 -12 -150 -26z m143 -15 c7 -7 12 -24 12 -38 0 -14 -5 -31 -12
-38 -28 -28 -88 -2 -88 38 0 40 60 66 88 38z m-55 -109 c28 -44 -25 -95 -72
-69 -24 12 -29 58 -9 78 17 17 68 11 81 -9z m-75 -91 c22 -22 14 -67 -14 -80
-45 -21 -87 21 -66 66 13 28 58 36 80 14z"/>
<path d="M4688 1559 c-24 -13 -23 -46 1 -59 15 -7 23 -6 35 6 9 8 16 19 16 24
0 7 -28 41 -33 40 -1 0 -10 -5 -19 -11z"/>
<path d="M4615 1454 c-9 -9 -14 -23 -11 -31 3 -8 6 -17 6 -19 0 -2 13 -4 29
-4 34 0 48 32 24 55 -19 19 -28 19 -48 -1z"/>
<path d="M4552 1361 c-8 -4 -12 -19 -10 -32 2 -17 10 -25 29 -27 31 -4 44 19
29 49 -11 20 -27 24 -48 10z"/>
<path d="M3902 1455 c-68 -13 -125 -25 -127 -27 -2 -2 9 -71 24 -153 27 -146
28 -150 52 -148 50 5 264 46 271 52 4 3 -5 72 -19 154 -31 172 -9 158 -201
122z m153 -56 c0 -28 -5 -35 -28 -43 -59 -21 -93 71 -34 93 34 14 62 -9 62
-50z m-77 -55 c26 -18 28 -50 5 -76 -20 -22 -41 -23 -65 -1 -25 22 -23 59 4
77 12 9 25 16 28 16 3 0 16 -7 28 -16z m-64 -100 c45 -45 -8 -114 -60 -79 -31
20 -31 59 -2 79 28 20 43 20 62 0z"/>
<path d="M3992 1431 c-8 -4 -12 -19 -10 -32 4 -29 45 -34 61 -7 19 30 -19 60
-51 39z"/>
<path d="M3921 1322 c-12 -23 4 -52 29 -52 25 0 41 30 29 53 -13 22 -46 22
-58 -1z"/>
<path d="M3854 1226 c-11 -28 1 -51 25 -51 32 0 49 28 32 49 -17 20 -50 21
-57 2z"/>
<path d="M4675 1260 c-27 -7 -27 -8 -5 -8 14 0 39 4 55 8 27 7 27 8 5 8 -14 0
-38 -4 -55 -8z"/>
<path d="M4660 1233 c-74 -14 -136 -26 -137 -27 -7 -6 56 -301 63 -300 101 15
275 48 285 54 10 7 8 34 -10 137 -28 162 -29 163 -49 162 -9 0 -78 -12 -152
-26z m156 -28 c15 -23 15 -27 0 -50 -28 -42 -96 -29 -96 18 0 58 65 80 96 32z
m-171 -25 c22 -25 13 -68 -17 -79 -54 -20 -94 27 -64 74 20 30 56 33 81 5z
m200 -140 c15 -17 16 -24 7 -45 -14 -30 -33 -39 -67 -31 -29 7 -42 45 -25 75
14 27 61 28 85 1z m-163 -35 c17 -38 -3 -75 -42 -75 -21 0 -34 8 -46 25 -15
23 -15 27 0 50 12 17 25 25 46 25 23 0 33 -6 42 -25z"/>
<path d="M4746 1199 c-17 -25 -12 -46 15 -54 42 -14 68 44 30 65 -26 14 -28
13 -45 -11z"/>
<path d="M4585 1176 c-20 -15 -17 -44 7 -59 12 -8 21 -7 32 2 36 30 -1 85 -39
57z"/>
<path d="M4783 1043 c-18 -6 -16 -48 1 -62 19 -16 56 2 56 27 0 32 -26 48 -57
35z"/>
<path d="M4612 1008 c-30 -30 11 -85 44 -57 25 21 11 69 -21 69 -6 0 -16 -5
-23 -12z"/>
<path d="M4565 1240 c-27 -7 -27 -8 -5 -8 14 0 39 4 55 8 27 7 27 8 5 8 -14 0
-38 -4 -55 -8z"/>
<path d="M4340 1174 c-69 -13 -134 -26 -146 -29 l-21 -5 27 -145 c15 -80 30
-148 32 -150 6 -6 291 45 299 54 9 9 -45 294 -57 297 -5 1 -65 -9 -134 -22z
m112 -31 c24 -21 23 -45 -2 -68 -29 -27 -74 -10 -78 28 -6 52 41 76 80 40z
m-124 -185 c22 -22 15 -67 -12 -80 -31 -14 -53 -5 -68 27 -9 21 -8 28 7 45 20
22 55 26 73 8z"/>
<path d="M4390 1125 c-10 -12 -10 -18 0 -30 20 -25 55 -15 55 15 0 30 -35 40
-55 15z"/>
<path d="M4264 935 c-9 -23 3 -45 24 -45 25 0 44 23 36 44 -8 20 -53 21 -60 1z"/>
<path d="M4501 1184 c0 -11 3 -14 6 -6 3 7 2 16 -1 19 -3 4 -6 -2 -5 -13z"/>
<path d="M3986 1112 c-87 -17 -141 -32 -144 -40 -2 -7 8 -78 23 -156 l26 -142
127 23 c192 34 175 27 168 76 -18 114 -50 267 -55 266 -3 0 -69 -13 -145 -27z
m128 -38 c19 -18 20 -38 6 -65 -12 -22 -59 -26 -78 -7 -28 28 -2 88 38 88 10
0 26 -7 34 -16z m-160 -30 c32 -31 11 -84 -32 -84 -35 0 -52 17 -52 52 0 43
53 64 84 32z m190 -130 c32 -31 11 -84 -32 -84 -35 0 -52 17 -52 52 0 43 53
64 84 32z m-160 -30 c32 -31 8 -84 -38 -84 -29 0 -46 18 -46 50 0 14 5 31 12
38 17 17 54 15 72 -4z"/>
<path d="M4051 1057 c-22 -27 10 -64 45 -50 23 9 14 57 -12 61 -11 2 -26 -3
-33 -11z"/>
<path d="M3891 1027 c-24 -29 17 -70 46 -46 20 17 12 53 -13 57 -11 2 -26 -3
-33 -11z"/>
<path d="M4077 896 c-14 -35 23 -67 50 -45 8 7 13 22 11 33 -4 26 -52 35 -61
12z"/>
<path d="M3917 866 c-14 -35 23 -67 50 -45 8 7 13 22 11 33 -4 26 -52 35 -61
12z"/>
<path d="M3948 1123 c7 -3 16 -2 19 1 4 3 -2 6 -13 5 -11 0 -14 -3 -6 -6z"/>
<path d="M4521 1074 c0 -11 3 -14 6 -6 3 7 2 16 -1 19 -3 4 -6 -2 -5 -13z"/>
<path d="M4531 1024 c0 -11 3 -14 6 -6 3 7 2 16 -1 19 -3 4 -6 -2 -5 -13z"/>
<path d="M999 1547 c-103 -29 -181 -96 -228 -197 -22 -46 -26 -69 -26 -145 1
-77 5 -98 28 -145 14 -31 46 -77 71 -102 l44 -46 -24 -11 c-24 -10 -24 -12 -9
-40 8 -16 18 -32 22 -34 7 -4 163 80 179 96 3 3 -23 20 -57 38 -168 90 -211
319 -82 441 87 83 246 76 341 -15 55 -53 84 -121 91 -213 l6 -82 75 45 c41 24
81 48 88 52 10 6 9 14 -5 39 -19 34 -32 39 -51 20 -15 -15 -14 -15 -35 53 -44
146 -167 243 -321 254 -34 3 -81 -1 -107 -8z m119 -16 c8 -5 12 -17 10 -27 -4
-26 -85 -33 -94 -9 -13 34 47 60 84 36z m-139 -35 c15 -18 -14 -53 -51 -62
-41 -9 -50 22 -14 53 31 26 49 29 65 9z m272 -7 c23 -23 21 -42 -5 -47 -48
-10 -89 25 -65 54 16 20 46 17 70 -7z m105 -98 c22 -43 -7 -71 -45 -45 -13 10
-21 26 -21 45 0 27 3 30 27 27 17 -2 32 -12 39 -27z m-486 -4 c0 -31 -27 -67
-51 -67 -28 0 -29 42 -2 73 23 25 53 22 53 -6z m-46 -130 c15 -24 -4 -71 -31
-75 -31 -5 -41 39 -18 74 17 27 32 28 49 1z m26 -146 c10 -19 14 -61 6 -61 -2
0 -11 -3 -19 -6 -21 -8 -47 23 -47 57 0 24 4 29 25 29 14 0 29 -8 35 -19z"/>
<path d="M1060 1510 c0 -5 12 -10 26 -10 14 0 23 4 19 10 -3 6 -15 10 -26 10
-10 0 -19 -4 -19 -10z"/>
<path d="M934 1475 c-17 -13 -17 -14 -2 -15 9 0 20 5 23 11 11 17 0 20 -21 4z"/>
<path d="M1200 1480 c0 -12 28 -25 36 -17 3 3 -4 10 -15 17 -15 7 -21 7 -21 0z"/>
<path d="M1310 1391 c0 -5 7 -14 15 -21 16 -14 18 -10 9 14 -6 17 -24 22 -24
7z"/>
<path d="M830 1376 c-6 -9 -10 -21 -8 -28 3 -8 9 -4 17 10 15 28 9 39 -9 18z"/>
<path d="M790 1225 c1 -26 2 -28 11 -12 8 14 8 22 0 30 -8 8 -11 3 -11 -18z"/>
<path d="M810 1098 c0 -9 5 -20 11 -23 17 -11 20 0 4 21 -13 17 -14 17 -15 2z"/>
<path d="M1584 903 c-12 -2 -32 -15 -45 -29 -12 -13 -30 -24 -39 -24 -9 0 -31
-11 -48 -24 l-33 -24 41 -32 40 -32 62 38 c35 20 65 39 67 40 6 5 -10 94 -17
93 -4 -1 -17 -4 -28 -6z"/>
<path d="M1568 737 c-65 -40 -80 -59 -58 -72 11 -7 163 86 164 100 2 23 -43
11 -106 -28z"/>
<path d="M1610 671 c-89 -54 -96 -61 -113 -107 -12 -36 -16 -73 -15 -139 3
-81 7 -98 38 -160 45 -89 78 -110 170 -109 114 2 266 85 329 180 78 118 4 267
-175 355 -101 50 -123 48 -234 -20z m82 -41 c29 0 67 -22 74 -42 12 -39 -46
-74 -74 -46 -8 8 -12 8 -12 1 0 -18 23 -31 74 -43 87 -19 137 -76 122 -137 -4
-16 -7 -36 -7 -46 0 -9 -12 -25 -26 -34 -20 -13 -29 -14 -44 -5 -10 7 -28 12
-40 12 -11 0 -34 14 -51 30 -25 26 -28 33 -17 46 25 31 49 37 70 18 10 -9 22
-14 25 -11 14 14 -18 34 -70 46 -30 7 -66 21 -80 32 -33 26 -53 88 -37 118 7
12 9 25 6 30 -9 15 47 53 59 41 5 -5 18 -10 28 -10z"/>
<path d="M1635 616 c-23 -17 -31 -100 -12 -130 15 -23 68 -47 129 -60 34 -8
59 -32 52 -51 -7 -18 -35 -20 -51 -4 -12 12 -53 -4 -53 -21 0 -15 52 -50 76
-50 12 0 26 -4 29 -10 7 -12 46 10 43 25 -1 5 4 23 10 38 19 44 -7 93 -60 117
-24 11 -52 20 -63 20 -30 0 -65 28 -65 51 0 21 20 25 38 7 10 -10 17 -8 32 8
21 20 21 20 1 38 -27 24 -86 37 -106 22z"/>
<path d="M2590 679 c-129 -48 -236 -92 -238 -97 -2 -8 162 -460 171 -469 2 -1
111 37 243 86 195 73 238 92 236 106 -5 25 -164 449 -171 456 -3 3 -112 -33
-241 -82z m227 -11 c50 -47 12 -138 -57 -138 -68 0 -105 87 -58 137 28 30 83
31 115 1z m-256 -94 c59 -53 1 -157 -77 -138 -32 8 -64 50 -64 83 1 68 89 103
141 55z m357 -171 c29 -32 28 -64 -4 -102 -58 -69 -162 -7 -133 79 21 60 92
72 137 23z m-263 -88 c44 -43 31 -112 -25 -135 -35 -15 -84 0 -100 31 -30 55
10 129 70 129 19 0 40 -9 55 -25z"/>
<path d="M2719 662 c-28 -24 -31 -79 -4 -98 31 -23 71 -17 94 13 24 30 20 58
-11 86 -26 22 -50 22 -79 -1z"/>
<path d="M2457 562 c-37 -40 -6 -112 47 -112 27 0 66 42 66 69 0 50 -80 80
-113 43z"/>
<path d="M2816 396 c-31 -30 -33 -59 -6 -86 41 -41 110 -14 110 41 0 33 -19
56 -52 64 -21 5 -33 1 -52 -19z"/>
<path d="M2551 294 c-27 -34 -26 -50 4 -79 28 -29 51 -31 82 -10 29 21 34 60
11 90 -27 34 -70 33 -97 -1z"/>
<path d="M3836 574 c-65 -19 -120 -35 -121 -36 -3 -4 93 -350 98 -355 4 -3
235 56 245 62 3 3 -95 356 -100 360 -2 1 -57 -13 -122 -31z m115 -45 l22 -31
-23 7 c-15 5 -25 2 -31 -6 -6 -9 -9 1 -9 29 0 48 8 48 41 1z m-10 -108 c46
-46 50 -76 13 -93 l-27 -12 29 -12 29 -12 -26 -11 c-15 -5 -44 -13 -64 -17
l-37 -7 16 25 c16 25 16 25 -7 21 -39 -8 -79 52 -47 72 6 3 10 17 10 30 0 29
24 55 52 55 11 0 38 -17 59 -39z"/>
<path d="M3920 530 c0 -5 5 -10 11 -10 5 0 7 5 4 10 -3 6 -8 10 -11 10 -2 0
-4 -4 -4 -10z"/>
<path d="M3850 430 c-6 -11 -8 -25 -4 -31 3 -6 -2 -19 -11 -29 -35 -38 10 -77
48 -42 17 16 26 18 40 11 13 -8 22 -7 33 2 21 17 14 53 -11 57 -11 2 -25 13
-30 25 -13 30 -50 34 -65 7z"/>
<path d="M3897 300 c-4 -14 0 -20 12 -20 25 0 33 11 20 27 -16 18 -26 16 -32
-7z"/>
<path d="M3690 476 c0 -16 89 -338 95 -344 9 -9 245 64 245 75 0 18 -14 17
-111 -12 -46 -13 -91 -25 -100 -25 -12 0 -27 37 -60 157 -24 86 -50 158 -56
161 -7 2 -13 -3 -13 -12z"/>
<path d="M3660 428 c-1 -29 94 -348 103 -348 5 0 61 14 123 31 75 21 114 36
114 45 0 19 -11 18 -123 -15 l-98 -29 -8 21 c-4 12 -26 86 -47 165 -24 87 -44
142 -51 142 -7 0 -13 -6 -13 -12z"/>
<path d="M3017 5993 c-7 -6 21 -32 35 -33 4 0 12 9 18 20 10 18 8 20 -18 20
-16 0 -32 -3 -35 -7z"/>
<path d="M3084 5968 c-121 -144 -72 -361 100 -439 27 -12 64 -19 106 -19 236
0 360 275 206 458 l-28 32 -178 0 -178 0 -28 -32z m275 -103 l53 -85 -50 -77
c-27 -43 -55 -78 -63 -78 -7 0 -35 35 -62 78 l-49 77 53 85 c30 47 56 85 59
85 3 0 29 -38 59 -85z"/>
<path d="M3251 5845 l-41 -64 42 -66 c23 -36 45 -65 49 -65 4 0 25 29 48 65
l40 65 -40 65 c-23 36 -45 65 -49 65 -5 0 -27 -29 -49 -65z"/>
<path d="M3510 5980 c12 -23 15 -24 41 -9 26 14 15 29 -22 29 -27 0 -29 -2
-19 -20z"/>
<path d="M4114 5975 c-16 -24 -16 -27 2 -40 26 -20 25 -20 69 25 l39 40 -47 0
c-39 0 -49 -4 -63 -25z"/>
<path d="M4211 5954 c-77 -69 -105 -130 -105 -229 -1 -61 4 -91 20 -126 31
-67 87 -124 152 -156 76 -37 181 -38 260 -4 108 48 182 164 182 285 0 99 -46
191 -121 246 l-42 30 -147 0 -148 0 -51 -46z m254 -99 c14 -13 25 -35 25 -49
0 -16 7 -27 21 -31 20 -7 39 -42 39 -74 0 -31 -38 -61 -78 -61 l-37 -1 37 -33
c21 -18 35 -36 31 -39 -9 -10 -193 -8 -193 1 0 5 14 18 30 30 17 13 30 27 30
32 0 6 -13 10 -30 10 -38 0 -70 32 -70 70 0 29 29 70 50 70 6 0 10 12 10 27 0
66 87 97 135 48z"/>
<path d="M4360 5841 c-5 -11 -10 -30 -10 -43 0 -15 -10 -29 -30 -40 -38 -22
-42 -69 -8 -92 30 -21 44 -20 70 6 17 17 24 19 37 9 43 -31 60 -34 86 -17 37
24 35 71 -5 94 -21 12 -30 25 -30 44 0 36 -25 58 -65 58 -24 0 -38 -6 -45 -19z"/>
<path d="M4400 5651 c0 -7 -9 -26 -21 -42 l-20 -29 50 0 50 0 -25 37 c-31 47
-34 49 -34 34z"/>
<path d="M4610 5992 c0 -4 16 -23 35 -42 34 -33 34 -33 60 -16 l27 18 -23 24
c-16 17 -33 24 -61 24 -21 0 -38 -4 -38 -8z"/>
<path d="M5491 5768 c-56 -127 -100 -233 -98 -235 15 -14 373 -163 384 -159 7
3 13 13 13 23 0 14 -40 35 -161 87 -88 39 -162 73 -165 77 -3 6 164 401 183
432 2 4 -9 7 -25 7 -29 0 -32 -5 -131 -232z"/>
<path d="M5662 5983 c-17 -33 -171 -388 -174 -401 -2 -9 61 -42 187 -97 104
-46 192 -82 196 -79 4 2 9 12 11 22 4 15 -23 30 -164 92 -141 62 -167 76 -163
91 4 10 42 100 86 199 43 99 79 183 79 185 0 14 -51 2 -58 -12z"/>
<path d="M5659 5808 c-46 -105 -85 -194 -87 -197 -2 -6 366 -171 381 -171 4 0
17 19 27 43 15 31 20 64 19 127 0 58 -3 80 -9 69 -5 -9 -23 -22 -39 -28 -24
-10 -34 -10 -59 3 -29 15 -30 15 -24 -7 3 -12 12 -32 20 -45 8 -12 13 -24 11
-26 -2 -2 -46 14 -96 36 -88 38 -108 58 -59 58 12 0 31 7 42 15 17 13 17 14 2
15 -56 1 -78 92 -32 129 15 12 33 21 41 21 8 0 28 14 43 30 58 62 149 24 138
-58 -4 -24 -1 -45 8 -57 12 -16 14 -2 14 108 l0 127 -128 0 -128 0 -85 -192z"/>
<path d="M2992 5957 c-7 -8 -18 -33 -27 -56 -12 -36 -12 -43 0 -47 24 -10 35
-1 55 43 18 40 18 42 1 57 -15 14 -20 14 -29 3z"/>
<path d="M3558 5952 c-14 -15 -13 -21 4 -59 12 -28 25 -43 37 -43 28 0 30 9
14 55 -19 57 -35 71 -55 47z"/>
<path d="M81 5946 c-8 -9 -11 -19 -7 -23 9 -9 29 13 24 27 -2 8 -8 7 -17 -4z"/>
<path d="M4055 5878 c-32 -68 -31 -75 4 -80 27 -4 31 0 51 49 22 53 22 54 4
68 -29 22 -33 19 -59 -37z"/>
<path d="M4708 5913 c-14 -16 -13 -23 8 -69 20 -46 25 -51 48 -47 32 6 32 20
5 84 -23 52 -37 60 -61 32z"/>
<path d="M5856 5874 c-9 -8 -16 -22 -16 -30 0 -9 -10 -14 -27 -14 -51 0 -80
-40 -59 -81 10 -20 19 -24 59 -24 40 0 49 -4 60 -24 20 -39 43 -48 75 -31 32
18 42 69 18 89 -11 10 -14 24 -10 55 5 32 2 46 -11 59 -21 21 -69 22 -89 1z"/>
<path d="M2946 5823 c-9 -22 -7 -66 3 -81 5 -8 17 -12 27 -10 15 2 20 13 22
49 3 43 1 47 -22 51 -16 3 -27 0 -30 -9z"/>
<path d="M3603 5832 c-19 -3 -22 -9 -20 -50 2 -43 4 -47 27 -47 22 0 25 5 28
37 4 47 -6 64 -35 60z"/>
<path d="M4026 5782 c-10 -9 -7 -110 4 -117 5 -3 19 -3 32 0 21 5 23 11 22 58
-2 46 -5 52 -27 58 -14 4 -28 4 -31 1z"/>
<path d="M4740 5726 c0 -40 4 -55 16 -60 38 -15 44 -8 44 54 l0 60 -30 0 c-30
0 -30 -1 -30 -54z"/>
<path d="M2968 5713 c-22 -6 -22 -4 3 -64 24 -54 23 -53 49 -39 18 9 18 11 0
57 -18 49 -23 54 -52 46z"/>
<path d="M3562 5670 c-20 -49 -20 -50 -2 -60 26 -14 25 -15 49 41 25 56 25 54
-5 63 -18 6 -24 -1 -42 -44z"/>
<path d="M5817 5680 c-14 -11 -30 -20 -36 -20 -6 0 -11 -3 -11 -7 0 -8 81 -45
87 -40 1 2 -2 18 -7 37 -5 18 -7 37 -4 41 8 14 -2 10 -29 -11z"/>
<path d="M4042 5641 c-10 -6 -9 -19 8 -64 12 -31 25 -59 30 -62 4 -3 18 3 29
13 l22 17 -23 53 c-21 51 -38 62 -66 43z"/>
<path d="M4730 5640 c0 -6 -9 -30 -20 -53 l-20 -42 22 -17 c21 -16 24 -16 35
-1 7 9 20 36 29 60 15 38 15 46 3 54 -19 12 -49 11 -49 -1z"/>
<path d="M3021 5587 c-8 -10 -1 -22 28 -51 39 -38 39 -38 51 -16 10 19 8 26
-16 51 -31 32 -46 36 -63 16z"/>
<path d="M3497 5572 c-18 -19 -25 -35 -21 -45 9 -25 26 -21 62 16 25 26 29 36
20 45 -18 18 -32 15 -61 -16z"/>
<path d="M3122 5518 c-21 -21 -13 -35 28 -52 55 -22 70 -20 70 7 0 17 -9 27
-37 37 -21 8 -40 16 -43 18 -3 1 -11 -3 -18 -10z"/>
<path d="M3398 5512 c-28 -12 -38 -23 -38 -39 0 -28 25 -30 75 -6 37 18 43 31
23 51 -14 14 -13 14 -60 -6z"/>
<path d="M4118 5510 l-23 -19 40 -40 c21 -23 42 -41 46 -41 4 0 13 10 22 23
14 21 12 24 -24 59 -38 37 -38 37 -61 18z"/>
<path d="M4641 5486 c-29 -30 -31 -36 -19 -55 18 -29 26 -27 69 21 36 38 37
42 21 54 -26 20 -35 17 -71 -20z"/>
<path d="M3240 5465 c0 -23 3 -25 50 -25 47 0 50 2 50 25 0 23 -3 25 -50 25
-47 0 -50 -2 -50 -25z"/>
<path d="M4216 5418 c-14 -20 -14 -23 4 -35 23 -16 101 -45 107 -39 2 2 5 16
6 31 2 23 -4 29 -48 46 -27 10 -51 19 -52 19 -1 0 -9 -10 -17 -22z"/>
<path d="M4528 5417 c-43 -18 -47 -23 -41 -46 3 -14 7 -27 8 -29 4 -5 115 39
120 48 7 12 -17 50 -30 49 -5 -1 -31 -10 -57 -22z"/>
<path d="M4355 5371 c-9 -34 5 -43 61 -39 47 3 49 4 49 32 0 29 -1 30 -52 30
-47 1 -53 -1 -58 -23z"/>
<path d="M5645 4525 l-179 -175 100 -103 c55 -56 136 -140 181 -187 l81 -84
86 84 86 84 0 52 c0 45 -4 57 -30 82 -16 17 -30 40 -30 51 0 31 21 70 42 76
15 5 18 17 18 67 l0 62 -77 80 c-43 45 -82 82 -88 83 -5 1 -91 -76 -190 -172z
m245 65 c13 -13 20 -33 20 -59 0 -53 -38 -85 -90 -77 -65 10 -91 77 -49 130
26 33 88 37 119 6z m-207 -182 c41 -30 35 -125 -8 -142 -60 -22 -125 16 -125
74 0 62 83 104 133 68z m207 -213 c7 -8 12 -31 13 -51 2 -69 -82 -109 -131
-64 -46 43 -36 111 20 134 34 15 77 6 98 -19z"/>
<path d="M5792 4584 c-28 -19 -30 -74 -4 -97 27 -25 78 -22 96 5 22 32 20 55
-9 83 -28 29 -51 31 -83 9z"/>
<path d="M5615 4400 c-52 -20 -59 -79 -13 -113 23 -17 31 -19 53 -9 14 6 31
23 37 38 22 47 -29 102 -77 84z"/>
<path d="M5782 4190 c-44 -41 -17 -110 41 -110 48 0 84 59 59 96 -9 14 -47 34
-64 34 -8 0 -24 -9 -36 -20z"/>
<path d="M0 4474 l0 -61 33 -1 c45 -1 81 -44 73 -86 -7 -38 -48 -76 -82 -76
-22 0 -24 -4 -24 -50 0 -27 3 -50 6 -50 8 0 184 172 184 179 0 3 -43 51 -95
106 l-94 100 -1 -61z"/>
<path d="M0 4335 c0 -65 0 -65 28 -65 57 0 82 65 42 108 -12 12 -32 22 -45 22
-24 0 -25 -3 -25 -65z"/>
<path d="M5972 4378 c-19 -19 -14 -73 8 -93 20 -18 20 -17 20 43 0 62 -6 72
-28 50z"/>
<path d="M0 3576 l0 -45 28 15 c35 18 66 18 102 -1 37 -19 50 -43 50 -95 0
-60 -41 -100 -104 -100 -24 0 -48 5 -51 10 -20 32 -25 -7 -25 -200 l0 -210
125 0 125 0 0 335 0 335 -125 0 -125 0 0 -44z"/>
<path d="M5570 3285 l0 -335 215 0 215 0 0 213 c-1 165 -4 218 -15 237 -19 33
-19 81 0 106 8 10 15 40 15 67 l0 47 -215 0 -215 0 0 -335z m243 -115 c60 -66
15 -175 -72 -175 -82 0 -133 77 -98 151 33 68 118 80 170 24z"/>
<path d="M5681 3144 c-12 -15 -21 -34 -21 -44 0 -10 9 -29 21 -44 41 -52 129
-23 129 44 0 67 -88 96 -129 44z"/>
<path d="M29 3501 c-35 -36 -37 -64 -4 -96 31 -32 74 -33 103 -2 29 31 28 72
-3 102 -32 33 -60 31 -96 -4z"/>
<path d="M142 2631 c-9 -5 -11 -17 -6 -34 6 -25 10 -27 65 -27 55 0 59 2 65
26 4 17 2 29 -7 35 -18 11 -100 11 -117 0z"/>
<path d="M50 2611 c-42 -15 -45 -19 -48 -55 -3 -34 -1 -38 15 -31 10 4 36 14
59 21 37 13 40 17 36 44 -2 17 -7 32 -11 34 -3 2 -26 -4 -51 -13z"/>
<path d="M296 2613 c-14 -36 -5 -49 54 -75 l59 -26 16 24 c8 13 15 26 15 28 0
7 -54 35 -100 51 -33 12 -39 12 -44 -2z"/>
<path d="M5976 2577 c-18 -13 -18 -14 0 -43 18 -27 19 -27 22 -6 2 12 2 31 0
43 -3 18 -5 19 -22 6z"/>
<path d="M448 2523 c-17 -28 -17 -28 24 -70 39 -40 42 -41 64 -26 13 8 24 20
24 26 0 11 -79 97 -90 97 -3 0 -13 -12 -22 -27z"/>
<path d="M5876 2501 l-48 -49 23 -16 c32 -22 34 -21 79 24 40 40 40 41 23 65
-10 13 -20 25 -23 25 -3 0 -27 -22 -54 -49z"/>
<path d="M110 2534 c-8 -3 -36 -15 -62 -26 l-48 -21 0 -304 0 -304 44 -20 c77
-34 148 -43 218 -29 121 23 214 96 266 208 23 49 27 70 27 147 0 77 -4 98 -26
145 -37 78 -88 131 -161 170 -56 30 -73 34 -153 37 -50 1 -97 0 -105 -3z m182
-246 l69 -106 -62 -99 c-34 -54 -68 -104 -75 -112 -11 -12 -25 4 -84 95 -39
60 -69 113 -68 119 7 25 134 214 142 212 6 -2 41 -51 78 -109z"/>
<path d="M156 2275 c-32 -48 -55 -94 -52 -101 3 -8 29 -51 57 -95 l52 -81 59
92 60 91 -53 82 c-29 45 -56 86 -60 90 -4 5 -32 -31 -63 -78z"/>
<path d="M5953 2446 c-24 -21 -57 -67 -75 -104 -30 -60 -33 -75 -33 -157 0
-81 3 -97 32 -155 30 -61 106 -150 118 -138 3 3 4 137 3 299 l-3 293 -42 -38z"/>
<path d="M548 2406 c-16 -12 -16 -16 6 -70 28 -69 29 -70 61 -62 31 8 31 21 1
91 -25 56 -38 64 -68 41z"/>
<path d="M5785 2368 c-32 -68 -31 -84 1 -92 32 -8 32 -9 60 60 22 54 22 58 6
70 -29 23 -42 16 -67 -38z"/>
<path d="M589 2248 c0 -2 -1 -31 -3 -65 -2 -54 0 -63 15 -63 10 0 24 -3 33 -6
14 -5 16 4 16 65 l0 71 -30 0 c-16 0 -30 -1 -31 -2z"/>
<path d="M5748 2218 c-3 -18 -3 -49 -1 -69 5 -34 7 -36 36 -30 30 6 31 8 31
66 0 60 0 60 -31 63 -28 3 -31 0 -35 -30z"/>
<path d="M574 2084 c-4 -11 -15 -39 -26 -64 l-19 -44 23 -18 c13 -10 26 -18
29 -18 9 0 59 114 59 134 0 9 -6 16 -14 16 -8 0 -21 3 -30 6 -10 4 -18 -1 -22
-12z"/>
<path d="M5778 2093 c-10 -2 -18 -11 -18 -20 0 -19 50 -133 59 -133 3 1 16 9
28 19 l22 18 -24 59 c-24 58 -33 66 -67 57z"/>
<path d="M468 1908 c-36 -38 -37 -40 -22 -64 9 -13 19 -24 23 -24 4 0 28 22
54 48 l48 49 -25 16 c-33 22 -34 21 -78 -25z"/>
<path d="M5852 1933 l-23 -16 48 -49 c26 -26 50 -48 54 -48 4 0 14 11 23 25
16 25 16 26 -25 65 -23 22 -45 40 -48 39 -3 0 -16 -7 -29 -16z"/>
<path d="M396 1852 c-3 -6 -29 -18 -57 -27 -47 -16 -50 -19 -47 -48 2 -27 7
-32 26 -30 36 4 122 44 122 57 -1 19 -37 60 -44 48z"/>
<path d="M5977 1836 c-17 -26 -18 -30 -3 -44 21 -21 28 -12 24 34 l-3 38 -18
-28z"/>
<path d="M0 1813 c0 -37 2 -39 46 -56 54 -20 64 -16 64 22 0 24 -7 31 -47 47
-27 11 -51 21 -55 22 -5 2 -8 -14 -8 -35z"/>
<path d="M136 1778 c-12 -46 -9 -48 64 -48 62 0 70 2 70 19 0 44 -10 51 -70
51 -51 0 -58 -2 -64 -22z"/>
<path d="M5782 88 c-18 -40 -32 -76 -32 -80 0 -5 56 -8 125 -8 l125 0 0 44 0
43 -81 37 c-44 20 -86 36 -93 36 -7 0 -27 -33 -44 -72z"/>
<path d="M3240 105 c0 -23 3 -25 50 -25 47 0 50 2 50 25 0 23 -3 25 -50 25
-47 0 -50 -2 -50 -25z"/>
<path d="M5713 103 c-6 -16 -18 -45 -27 -65 l-16 -38 28 0 c25 0 31 7 52 56
19 47 20 58 9 65 -23 15 -34 10 -46 -18z"/>
<path d="M3153 100 c-47 -21 -48 -22 -33 -50 10 -19 11 -19 55 2 34 17 45 28
45 45 0 28 -12 28 -67 3z"/>
<path d="M3360 95 c0 -19 9 -28 43 -43 38 -18 43 -18 55 -4 19 25 15 32 -30
52 -57 26 -68 25 -68 -5z"/>
<path d="M4350 96 c0 -38 12 -46 66 -46 53 0 54 0 54 30 l0 30 -60 0 c-45 0
-60 -4 -60 -14z"/>
<path d="M4254 80 c-52 -23 -57 -30 -36 -58 l17 -22 40 20 c21 11 45 20 52 20
14 0 17 19 7 44 -8 20 -28 19 -80 -4z"/>
<path d="M4487 73 c-3 -16 -5 -28 -4 -28 1 0 26 -10 55 -22 l52 -21 15 21 c8
12 15 24 15 28 0 8 -94 49 -113 49 -8 0 -17 -12 -20 -27z"/>
<path d="M0 44 l0 -44 97 0 c53 0 94 2 92 4 -2 2 -46 22 -96 44 l-93 41 0 -45z"/>
<path d="M5617 55 c-23 -47 -21 -55 8 -55 19 0 28 8 40 37 12 29 13 38 3 45
-23 14 -34 8 -51 -27z"/>
<path d="M3057 40 c-36 -29 -34 -40 8 -40 40 0 57 23 33 46 -13 13 -18 12 -41
-6z"/>
<path d="M3202 41 c-102 -35 -89 -41 89 -41 148 1 162 2 144 16 -26 19 -110
44 -149 44 -17 -1 -55 -9 -84 -19z"/>
<path d="M3480 45 c-20 -24 -4 -45 35 -45 39 0 44 9 18 32 -31 26 -40 28 -53
13z"/>
<path d="M4159 21 l-24 -20 39 -1 c35 0 37 2 25 18 -7 9 -14 18 -15 20 -1 1
-12 -6 -25 -17z"/>
<path d="M4315 16 c-28 -13 -20 -14 100 -15 103 0 126 2 110 11 -31 18 -175
21 -210 4z"/>
<path d="M4627 23 c-15 -14 -6 -23 24 -23 27 0 30 2 19 15 -13 16 -32 19 -43
8z"/>
</g>
</svg>
